<svg id="Capa_1" xmlns="http://www.w3.org/2000/svg" version="1.1" xmlns:xlink="http://www.w3.org/1999/xlink" viewBox="0 0 488.8 129.3">
  <!-- Generator: Adobe Illustrator 29.8.1, SVG Export Plug-In . SVG Version: 2.1.1 Build 2)  -->
  <defs>
    <style>
      .st0 {
        fill: url(#Degradado_sin_nombre_5);
      }

      .st1 {
        fill: #fff;
      }

      .st2 {
        fill: #06268c;
      }
    </style>
    <linearGradient id="Degradado_sin_nombre_5" data-name="Degradado sin nombre 5" x1="498.5" y1="69.8" x2="445.1" y2="78.5" gradientUnits="userSpaceOnUse">
      <stop offset="0" stop-color="#0424d9"></stop>
      <stop offset=".8" stop-color="#06268c"></stop>
    </linearGradient>
  </defs>
  <g>
    <path class="st2" d="M63,0C28.3,0,0,28.3,0,63s7.5,34.6,20.5,46.5c.4.4.8.7,1.2,1.1,11.4,9.9,26.1,15.4,41.3,15.4s11.7-.8,17.2-2.4c.3,0,.6-.2.9-.3.2,0,.3-.1.5-.2.6-.2,1.3-.4,2-.6.4-.1.8-.3,1.3-.5.2,0,.4-.1.6-.2h0c.4-.1.8-.3,1.2-.5.4-.2.8-.3,1.2-.5.3-.1.6-.3.9-.4.4.4.9.8,1.4,1.1,1,.6,2.1.9,3.2,1.2.2,0,.3,0,.3-.2,0-.1,0-.3-.2-.4-.3-.1-.5-.2-.8-.3-.5-.2-1-.4-1.4-.7-.5-.3-1.1-.7-1.5-1.2-.2-.2-.4-.4-.5-.6s-.3-.4-.4-.7c.2-.5.3-1.1.3-1.6,0-.7,0-1.5-.3-2.2-.4-1-1-1.8-1.9-2.4-.1,0-.2-.2-.4-.2.3,0,.6-.2.9-.3.7.5,1.2,1.3,1.5,2.1,0,.2,0,.4.1.5,0,0,0,.2,0,.2.1.6.2,1.3.3,1.9.2,1.1.6,2.1,1.3,2.9.4.5.9.9,1.6,1.2.3.1.6.3.9.3,0,0,.1.2.2.3.2.3.4.5.7.8.2.1.3.3.5.4h0c.1.1.3.2.4.3.7.5,1.5.9,2.2,1.4.6.4,1.2,1,1.2,1.7,0,.3,0,.7-.4.8,0,0,0,0,0,0-.4-.2-.7-.6-.8-1h-.2c0,.3,0,.5.2.7,0,.2.2.3.3.5,1,1.3,3.4.6,3.8-.9.4-1.5,0-3-1.1-4.1-.5-.6-1.2-1-1.8-1.4,0,0,.2,0,.2,0,.2,0,.4,0,.6,0,1.4.6,2.3,2,2.6,3.5.1,1,0,2.1-.7,2.9-.5.7-1.4,1.1-2.2,1.2-1.1.2-1.9-.6-2.5-1.5,0,0,0,0,0,0,0-.1-.1-.3-.2-.4h-.3c0,.4.2.8.3,1.1.6,1.4,1.7,1.9,2.9,1.8h0c.6,0,1.3-.3,1.9-.7,1.5-1,2-2.9,1.8-4.5-.2-1.3-.8-2.5-1.7-3.5,0,0-.1-.1-.2-.2.7-.2,1.4-.5,1.9-.9.6,1.6.9,3.2.9,4.9,0,1.9-.8,3.7-2.4,4.7l.2.4h0c0,0,.1,0,.2,0,0,0,.2,0,.3-.1,0,0,0,0,0,0h0c.1,0,.2-.1.3-.2h0c.7-.5,1.3-1.2,1.7-1.9,1.2-2.3.8-6.2-.2-8.5.5-.6.8-1.4,1-2.3.2-1,.1-1.9,0-2.9-.1-.8-.3-1.6-.6-2.4.1-.1.2-.2.4-.3,1-.8,1.9-1.7,2.8-2.6,0,0,.2-.2.3-.3.4-.4.9-.9,1.3-1.3.3-.3.5-.6.8-.9,0,0,0,0,.1-.1h0l1.5-1.8.2-.2c1.7-2,3.3-4.2,4.7-6.5.8-1.3,1.6-2.7,2.4-4.1,4.8-9,7.4-19.3,7.4-29.6C126.1,28.3,97.8,0,63,0ZM63,121.1c-14.6,0-27.8-5.4-38-14.2,3.3-.8,6.6-1.5,9.9-2.3,3.2-.9,6-2.9,8.4-5.2.2-.2.3-.3.5-.5.6.1,1.4.2,2.3.3h0c0,0,.2,0,.2-.2s0-.2-.2-.2c-.8,0-1.5-.1-2.1-.2,0,0,.1-.1.1-.2.1-.1.2-.3.3-.4.5,0,1.1,0,1.8,0s.6,0,.9,0c0,0,.2,0,.2-.2s0-.2-.2-.2c-.9,0-1.8,0-2.5,0,0-.2.2-.3.2-.5.3,0,.7,0,1.1,0s1.2,0,1.9,0c0,0,.2,0,.1-.2,0,0,0-.2-.2-.1-1.1.1-2.1,0-2.9,0h0c0-.2,0-.4.1-.6.3,0,.7,0,1.1,0,.6,0,1.2,0,1.9,0,0,0,.2,0,.1-.2,0,0,0-.2-.2-.2-1.1.1-2.2,0-2.9,0,0-.2,0-.4,0-.6h0s.2,0,.2,0c.6,0,1.2,0,1.9,0,0,0,.2,0,.2-.2,0,0,0-.2-.2-.1-.7,0-1.5,0-2.1,0,0-.2,0-.5,0-.7h.3c.6,0,1.2,0,1.9,0,0,0,.2,0,.1-.2,0,0,0-.2-.2-.2-.8,0-1.5,0-2.2,0,0-.3,0-.6,0-.9,0,0,0,0,0,0,.6,0,1.2,0,1.9,0,0,0,.2,0,.1-.2,0,0,0-.2-.2-.1-.7,0-1.3,0-1.9,0,0-.2,0-.4,0-.6.4,0,.9,0,1.3,0,0,0,.2,0,.1-.2,0,0,0-.2-.2-.1-.5,0-.9,0-1.3,0,0-.3,0-.5,0-.8h.6c.4,0,.8,0,1.3,0,.3,2.5,1.6,4.3,3.4,5.4-.1.1-.2.2-.2.2,1,1,2.2,1.9,3.3,2.8,2,1.5,4,2.9,6,4.2,0,0,0,.1.1.1,0,0,0,0,0,0,1.4.9,2.8,1.8,4.3,2.7,0,0,0,0,0,0,.1,0,.4,0,1,0s.9,0,1.6,0c0,0,.2,0,.1-.2,0,0,0-.2-.2-.1-1.5.1-2.2,0-2.4,0,0,0,0-.1.1-.2h.2c.4,0,.9,0,1.6,0,0,0,.2,0,.1-.2,0,0,0-.2-.2-.1-.7,0-1.2,0-1.6,0-.2-.1-.4-.3-.6-.4.4,0,.8,0,1.3,0,0,0,.2,0,.1-.2,0,0,0-.2-.2-.1-.8,0-1.3,0-1.7,0-.2-.1-.4-.2-.5-.4.4,0,.9,0,1.6,0,0,0,0,0,0,0,0,0,.1,0,.2,0,.2,0,.3-.2.1-.3-.2-.1-.3-.2-.5-.4-.6-.5-1-1.2-1.2-1.8,0-.2-.1-.4-.2-.5,0-.3-.1-.6-.2-.8,0-.3,0-.6,0-.8,0-.5.1-1,.4-1.5.7-1.3,1.9-2.2,3.1-3.1.6-.4,1.2-.8,1.7-1.4.2-.3.4-.6.5-1,.5-1.4,0-2.9-.9-4.1,0-.5-.1-1-.2-1.5-.1-.7-.1-1.4.1-2,.3-1,1.3-1.8,2.3-2,1.3-.3,2,.5,2.1,1.7.2,1.2-.4,1.7-1.6,1.8,0,0-.3,0-.4,0,0,0-.1-.3-.2-.4,0-.2,0-.3,0-.4,0-.2.4-.3.5-.4v-.5c-.4-.2-.8-.2-1.2.1-.6.4-.7,1.4-.4,2,.2.5.7.9,1.2,1,.2,0,.5,0,.7,0,.7,0,1.3-.4,1.8-.9.6-.7.8-1.6.7-2.4-.3-2.1-2-3.2-4-2.4-1.1.4-2,1.2-2.4,2.2-.8-2.1-2.4-4-4-5.6.4,0,.7-.2,1-.4.7.7,1.9,1,2.7,1.2.9.2,1.8.2,2.7.3,1.7.3,3.4.9,4.6,2.1.7.9,1.1,2.1,1,3.3-.1,1.3-.9,2.7-2,3.4-.8.5-1.7.7-2.6.6-.5,0-1-.1-1.5-.3-.1,0-.3,0-.4.2-.2.4.3.5.5.6.1,0,.3.1.4.2.6,2.1.3,4-1.5,5.3-1,.8-2.1,1.5-3.1,2.3-.6.5-1.1,1.3-.9,2.1.1.9.7,1.7,1.7,1.6.2,0,.5,0,.7-.2,0,.6.1,1.3.2,1.9,0,0,0,.1.2.1s.2,0,.2-.2c0-.6,0-1.3.1-1.9.1-.6.3-1.2.6-1.7.1-.3.3-.6.5-.9.4-.8.8-1.6,1-2.5.2-.1.3-.3.5-.5,1.4-1.4,1.6-3.6.8-5.4.2,0,.4,0,.6,0,0,0,0,0,0,0,.2.6.3,1.2.4,1.8,0,1.1-.2,2.1-.8,3l-.3.4c-2.1,2.9-3.3,6.3-3,9.9,0,.3.5.3.5,0,0-2.7.9-5.3,2.4-7.6.5-.7,1-1.4,1.5-2l.2-.2.2-.2c1-1.5,1.1-3.5.4-5.2.4,0,.8-.2,1.2-.4,0,0,.1.2.2.3.6,1.2.5,2.6-.1,3.7-.1.2-.3.5-.4.7-1.1,1.7-2.3,3.2-3,5.1-.7,1.8-.9,3.9-.4,5.8.8,3.3,3.9,5.2,7.1,6.1-.2,0-.3,0-.5.1,0,0-.1.1-.1.2,0,0,0,.1.2.1h0c.4,0,.8-.2,1.1-.3.3,0,.6.2.9.2,0,0,.2,0,.3,0-1.8.6-3.2.7-4.1.6-.2,0-.4-.2-.5-.3,0,0,0,0,0,0,.5,0,1,0,1.5-.1,0,0,.1-.1.1-.2,0,0-.1-.1-.2-.1-.8.1-1.5.2-2.1.1-.3-.2-.5-.3-.8-.5h.3c.4,0,.8,0,1.3,0,0,0,.2,0,.1-.2,0,0,0-.2-.2-.2-.7,0-1.4,0-2,0-.2-.1-.3-.2-.5-.4.3,0,.7,0,1.1,0,0,0,.2,0,.1-.2,0,0,0-.2-.2-.2-.5,0-1,0-1.4,0-.4-.3-.8-.7-1.3-.9-.7-.3-1.4-.3-2.1-.4-1.2,0-2.3,0-3.5,0-2.9,0-6,0-8.9-.1-1.5,0-3,0-4.5,0-2.2-.1-4.5-.3-6.7-.5v.9c2.1.3,4.4.6,6.6.8.7,0,1.5,0,2.3.1,1.3,0,3.2.2,4.5.3,1.5.1,3,.2,4.5.2,1.5,0,3,0,4.5.1.9,0,1.8.1,2.6.4.4.2.6.5,1,.8.6.5,1.2,1,1.9,1.4,1.8,1.2,4,2,6.1,2.3,0,.9,0,1.9.4,2.6,0,0,0,0,0,0-5,1.4-10.4,2.2-15.9,2.2ZM46.4,90h-1c0-.2,0-.3,0-.4.4,0,.8,0,1.3,0,0,0,.2,0,.2-.2,0,0,0-.2-.2-.1-.4,0-.8,0-1.2,0,0-.2,0-.4,0-.6h.8c0,0,.2,0,.2-.2s0-.2-.2-.2h-.8c0-.1,0-.3,0-.4h1.3c0,0,.2,0,.2-.2s0-.2-.2-.2h-1.2c0-.2,0-.4,0-.6h1.7c0,0,.2,0,.2-.2s0-.2-.2-.2h-1.7c0-.2,0-.3,0-.5.5,0,1.3,0,2.2,0,0,0,.2,0,.2-.2,0,0,0-.2-.2-.2-.9,0-1.6,0-2.2,0,0-.1,0-.3,0-.4.3,0,1-.1,1.7,0,0,0,.2,0,.2-.2,0,0,0-.2-.2-.2-.7,0-1.4,0-1.8,0v-.5c.3,0,.8,0,1.2,0,0,0,.2,0,.2-.2s0-.2-.2-.2c-.5,0-.9,0-1.2,0v-.7c1.6.5,3,1.1,2.9,2.2,0,0,.1,0,.2,0-1.2,1.4-1.5,3.3-1.4,5.1-.7,0-1.3,0-1.8,0,0-.2,0-.5,0-.7h1c0,0,.2,0,.2-.1,0,0,0-.2-.2-.2ZM31.4,51.3s-1.3,2-2,4.6l-.8-.2s-.8,3.3-3.7,4.9c-1.8,1-2.4,2.6-2.6,3.7-.3,1.7.1,3.3.7,3.9.5.6,1.8,1.9,3.8,2.1-.1.3-.2.6-.3,1,0-.2,0-.3,0-.3,0,0-.3,0-.4,0-2.8-.3-5.7-1.6-5.9-4.7-.2-2.1.5-3.8,2.1-5.3,2-1.9,5-3.2,4.6-6.6,0-.6-.2-1.1-.4-1.6l-.6.2c.1.5.2,1,.3,1.5,0,1.2-.4,2.1-1.1,2.8,0-.1,0-.3.1-.4.2-.9.1-2-.7-2.5l-.3.4c.3.2.4.5.4.9,0,1.1-.6,2.1-1.1,3-.4.3-.8.6-1.2.9l.7-.8c-.1-.1-.9-1-.3-2.9.1-.4.2-.7.3-1,.3-.9.5-1.6.5-2.4.1,0,.2-.2.3-.4.5-1.3,1.5-2.8,3-2.7.5,0,1,.2,1.5.5.6.3.8,1.4.9,2.1,0,.2,0,.3,0,.5,0,.3.5.4.6,0,.4-1.2.4-2.8-.7-3.6,0,0-.2-.1-.2-.2h0c0-2,.5-4.1,1.9-5.6.5-.5,1.1-.9,1.6-1.3,1.4-1,2.6-2.3,3.4-3.8,0,.9-.3,1.7-.7,2.4,0,.2-.2.3-.3.4,0,0-.1,0-.1,0-1.7.8-3.1,2.2-3.8,3.9-.4,1-.6,2.2-.7,3.3h.6c0-1,.3-2,.8-2.9.5-.9,1.1-1.6,1.9-2.2-.4.9-.5,1.8-.4,2.7,0,.5.2.9.3,1.4h.4c0-.5,0-1,0-1.4.1-1.3.7-2.3,1.5-3.4.2-.2.4-.5.6-.8,1.5-2.1,1.3-5,1.4-7.4,0-1.8.1-3.6.5-5.3.4-1.7.9-3.3,1.9-4.8,1-1.4,2.3-2.4,3.8-2.9-.3.2-.5.4-.7.6-.7.7-1.4,1.5-1.6,2.5-.2,1.2-.5,2.4-.8,3.6-.4,1.3-.7,2.7-1.2,3.9-.8,1.9-2.3,6.1-.4,7.7.3.2.6.3.9.4l.2-.6c-.9-.4-.9-1.4-.8-2.3.2-1.6.9-3.2,1.6-4.7.3-.9.6-1.7.9-2.6,0,0,.2-.1.2-.2.7-.6,1.3-1.3,1.8-2.1.4-.5.8-1.3,1.2-1.8.9-1.3,2.4-2,3.9-2.5.7-.2,2.4-.7,3-.9,1-.3,2.2-.7,2.9-1.6l-.3-.4c-.6.3-1.2.5-1.9.7-3.2.7-7,.8-9,3.8-.2.3-.4.7-.6.9-.1.2-.2.3-.3.5,0-.4.2-.7.2-1.1v-.4c.2-.7.7-1.4,1.2-1.9,1.5-1.3,3.4-2,5.3-2.4h0c.4,0,.8,0,1.1-.1,1.9-.2,3.7-.4,5.5-.9-.3.6-.5,1.3-.6,2-.2-.1-.3-.2-.3-.2,0,0,0,.1-.2.2-.6.5-1.2.8-1.8,1.2-1.2.6-2.4,1.1-3.7,1.5-.9.3-1.8.5-2.6.9-3,1.5-4.9,5.2-4.1,8.5.2,1,.9,2,2,2.2l.2-.8c-.8-.2-1.2-.9-1.3-1.7-.5-2.8,1-5.8,3.5-7.1-.5.7-1,1.5-1.2,2.4,0,.4-.1.9,0,1.3.1.7.2,1.3.1,2,0,.2,0,.5-.1.7,0,0,0,.1,0,.2h0s.4.5.4.5c.4-.3.6-.7.7-1.1.3-.8.3-1.6.2-2.4-.2-1.6,1.1-3.1,2.1-4.2.2,0,.4-.1.7-.2.4-.1.9-.3,1.3-.4,1.4-.5,2.8-1,4.1-1.8,0,1.7.3,3.4.7,5h.4c-.5-3.2-.6-7.1,1.8-9.4.5-.4,1.1-.7,1.6-1.1,1.2-.7,2.4-1.4,3.5-2.1,0,0,0,0,0-.1.1,0,.2,0,.3.1,1.4.5,2.9.9,4.3,1-.5,1.3-.7,2.8-.7,4.1,0,0,7.1,2.7,10.1-4.9.5-.1,1.3-.3,2.3-.3,1.9,0,3.3.8,4.1,2.2,2.1,3.6-.4,6.8-.5,6.9-.2.3-.2.7,0,.9,0,0,.7.6,1.1,1.5.5,1,.5,2,.3,3-1.1-1.2-2.4-2.1-3.9-2.7-.4-.2-.8-.3-1.1-.4.1-.1.3-.2.4-.3.6-.5,1.2-1.2,1.6-1.9,1.1-2,.9-4.8-1.6-5.6-1-.3-2.2-.2-3.2.3-.2.1-.7.4-1,.5-1.1.5-2.3,1-3.5,1.3v.6c1.2,0,2.3-.2,3.4-.6l.5-.2.5-.2c.1,0,.6-.3.7-.3.3-.1.7-.2,1.1-.2.8,0,1.7.4,2,1.2.3.8.1,1.8-.3,2.6-.3.7-.9,1.3-1.5,1.7.4-.6.6-1.2.5-2,0-.6-.4-1-.7-1.5-.8-1-2.1-1-3.1-.5-.2,0-.4.2-.6.3l.3.6c.7-.1,1.8-.4,2.3.3.3.4.5.9.4,1.4-.3.9-1.5,1.6-2.4,2.1h0c-2.3.3-4.6,1.2-6.2,2.9-.6.4-1.2.9-1.8,1.4-1.1.9-2.1,1.9-3.1,2.9-1.3,1-3,1.6-4.6,1.1l-.4.7s0,0,.1,0c1.1.5,2.3.6,3.4.3,1-.3,1.9-.9,2.7-1.6.4-.4.8-.8,1.2-1.2-.3.6-.5,1.2-.6,1.8,0,.3-.2.6-.2.9,0,0,0,.1,0,.2-.2.3-.4.7-.7,1-.6.9-1.3,1.7-2.5,1.5-1.2-.2-2.4-.8-3.6-1.2-2.8-.9-5.7.8-7.2,3.2-1.3.6-2.4,1.7-3.2,2.8l.4.4c.2-.2.4-.4.7-.5,1.1-.8,2.3-1.5,3.6-1.7,1-.1,2,.1,3.1.4,1.7.5,3.4,1.1,5.2,1.2,1.2.1,2.5.2,3.7-.1,1.5-.3,2.9-.9,4.1-1.8,0,.1-.2.3-.2.4-.9,1.5-1.9,3.1-3.5,4-.7.4-1.6.5-2.5.5-2,0-3.1-1.2-4.9-2.1-1.5-.8-3.4-1-5.1-.8-2.1.3-3.9,1.2-5.1,3-1.2,1.9-1.4,4.3-1.1,6.5-.4,0-.8.1-1.2.2-.8.2-1.4.8-1.8,1.5-.4.6-.7,1.2-.9,1.9l.3.2.9-1c.2-.2.5-.5.7-.7.3-.4.7-.6,1.1-.6,1.3-.2,2.6.1,3.9,0,1.9,0,3.8-.2,5.6-.9,2.6-1,4.8-3.2,5.6-5.9.1,0,.3,0,.4.1,0,0,0,0,.1,0-.5,1.9-1.4,3.8-2.9,5.2-1.6,1.5-3.8,2.5-6,2.5-.4,0-.4.5,0,.5,1.2,0,2.4-.1,3.6-.5.6-.2,1.3-.5,1.8-.8-1.5,1.5-3.5,2.2-5.8,2.2-1.5,0-3-.1-4.5-.4-.8-.1-1.7-.4-2.5-.2-1,.1-1.9,1-1.7,2h.3c.5-.9,1.4-.9,2.3-.8.2,0,1.2.2,1.4.3,3.9.7,8.8.9,11.5-2.5.5-.7.9-1.4,1.2-2.2,0,0,0,0,0,0,.5-.5,1-1.1,1.5-1.8-.1.2-.2.4-.3.6-.4,1-1,2.4-1.5,3.3-1.8,3.1-5.4,4.3-8.9,4.1-1.2,0-2.4-.2-3.7-.3-.6,0-1.3,0-2,0-.7.1-1.3.4-1.9.6-.6.3-1.1.6-1.7,1l.4.7c.4-.2.8-.3,1.1-.4,0,.6.1,1.5.2,2.5,0,0,0,.1.2.1h0s0,0,0,0l.5.9c1.8-.9,2.9.3,3,.5h0c.2.6.2,1.6.3,2.3,0,0-.2.1-.3.1-.2-.6-.1-1.1-.1-1.1,0,0,0-.2-.1-.2,0,0-.2,0-.2.1,0,0-.2.6.1,1.3-.1,0-.2,0-.3,0-.3-.7-.2-1.2-.2-1.3,0,0,0-.2-.1-.2,0,0-.2,0-.2.1,0,0-.2.6.1,1.4-.1,0-.2,0-.3,0-.4-.8-.3-1.4-.3-1.4,0,0,0-.2-.1-.2,0,0-.2,0-.2.1,0,0-.2.7.2,1.4-.2,0-.4,0-.5-.2-.3-.7,0-1.5,0-1.6,0,0,0-.2-.1-.2,0,0-.2,0-.2.1,0,0-.2.7,0,1.5-.2,0-.4-.2-.6-.3-.1-.6,0-1.2,0-1.2,0,0,0-.2-.1-.2,0,0-.2,0-.2.1,0,0,0,.5,0,1,0,0,0,0,0,0-.2-.2-.4-.4-.6-.6,0-.5.1-.9.1-.9,0,0,0-.2-.1-.2,0,0-.2,0-.2.1,0,0,0,.3-.1.6-.1-.1-.3-.3-.4-.4.1-.5.3-.8.3-.8,0,0,0-.2,0-.2,0,0-.2,0-.2,0,0,0-.2.3-.3.7-.1-.1-.2-.2-.4-.4,0-.5.3-.9.3-.9,0,0,0-.2,0-.2,0,0-.2,0-.2,0,0,0-.2.3-.3.8,0,0-.2-.2-.3-.3.1-.5.3-.9.3-.9,0,0,0-.2,0-.2,0,0-.2,0-.2,0,0,0-.2.3-.3.7-.1-.1-.2-.2-.3-.3.1-.5.3-.9.3-.9,0,0,0-.2,0-.2,0,0-.2,0-.2,0,0,0-.2.4-.3.8,0,0-.2-.1-.2-.2,0-.3.1-.6.2-.8.8-1.2,1.4-2.9,1.7-5,0,0-2.1.9-4,1.8-1.3.6-3.7,2.1-3.7,2.1,0,0,.4-5-3.4-9.8ZM28.2,64.7c.2.1.4-.2.2-.3-1.2-1.1-.5-3.6,0-4.9,0-.1,0-.2,0-.3.2-.3.4-.7.6-1-.2,2.1.2,4.4,1.9,6.5h-1.2c0,0,0-.2,0-.3,0,0,0,0,0,0,0,0,0,0,0,0,0,0,0,0,0,0-.6.8-1.7,1.8-2.8,1.8-2-.2-1.4-2.4-.8-3.7l-.4-.2c-.2.4-.4.7-.5,1.1-.3.8-.5,1.7,0,2.6.5.9,1.5,1.3,2.4,1.2,1.2-.2,2.5-1.1,3.3-2,0,0,.1-.2.1-.3.2.2.4.4.6.6,0,0,0,0,0,0,0,0-.2,0-.2.1-.4.2-.8.5-1.2.7-1,.7-1.9,1.6-2.6,2.7-1.8,0-3-1.1-3.5-1.6-.3-.4-.6-1.6-.4-2.9.2-.9.6-2.1,2-2.8.5-.3.9-.6,1.3-.9,0,1.4,0,3.1,1.3,3.9ZM33.4,36.3c-1.5,1.1-2.5,2.5-2.9,4.2,0-.1,0-.3-.1-.4,0-.3,0-.7.2-1,.4-1.7,1.2-3.3,2.6-4.4.8-.7,1.8-1.1,2.8-1.4,0,.5,0,1,0,1.5,0,.1,0,.2-.1.3-.5.2-1.5.6-2.5,1.3ZM35.3,36.4c-.2.4-.4.7-.6,1.1-.8,1.2-1.8,2.2-3,3,0,0,0,0,0,0,.3-1.3,1.1-2.4,2.4-3.3.5-.3.9-.6,1.3-.8ZM30.8,35.6c-.2-1,.5-2.2,1.2-2.9,1.1-1.1,2.7-1.7,4.1-2.2,0,.4,0,.8,0,1.1-2.4.6-4.1,2-5.2,3.9ZM30.5,32.3c-.5.9-.9,1.9-.6,2.9,0,.4.3.8.6,1.1-.2.5-.4,1-.6,1.6-.6-2.8-1.1-6.5,1.5-7.9l-.3-.5c-.6.3-1.1.6-1.5,1.1-1.2,1.5-1.3,3.5-1.2,5.3,0,1.2.3,2.4.5,3.5.2.8.4,1.8.5,2.6v.3c0-.1.2-.3.4-.3h0c-.4.4-.7.9-1,1.3,0-1.3-.6-2.8-1.2-4.4-.8-1.8-1.5-3.6-1.3-5.2.5-3.9,5.5-5.4,7-5.7,1.5-.3,2.6-.8,3.5-1.2-.1.5-.2.9-.3,1.4,0,.2,0,.5-.1.7-2.1.4-4.7,1.4-5.8,3.3ZM28.1,44.8c-.4,1-.5,2.1-.5,3.1-.2,0-.4,0-.6-.1-.7,0-1.3,0-1.8.3-.2-.6,0-1.3.5-1.8.2-.2.5-.4.8-.5l-.2-.5c-1.9.4-2.6,1.9-2.2,3.6-.3.3-.6.7-.8,1.1,0-.1,0-.2-.1-.4-.4-1.4-.3-2.8.2-3.8.4-.6.9-1,1.7-1.2,1.4-.3,2.5,0,3.1.1ZM57.1,13.9c-2.6.1-4.7,2.4-5.9,4.5-.3,0-.7,0-1,0-.1,0-.2,0-.3,0,1.4-3.4,4.7-6,8.5-5.5,1,.1,1.9.5,2.7,1,.2.1.4.2.6.3-.4.2-.8.5-1.2.7-1-.7-2.2-1.2-3.4-1.1ZM59.4,15.8c-.1,0-.3.2-.4.3-.8.5-1.5,1-2,1.7,0-.1,0-.2,0-.2-.8.3-1.7.4-2.6.6-.4,0-.7.1-1.1.2.5-.7,1.1-1.3,1.8-1.8.6-.5,1.4-.9,2.2-1,.4,0,.8,0,1.2.1.3,0,.6.1,1,.2ZM89.2,26.6c.4.1,1,.5.9,2-.1,2.7,2,4.2,2.6,4.6-.1.4-.3.7-.4,1-1.6-1.5-4.3-4.5-2.8-6.7.2-.4,0-.8-.3-.9ZM90.4,34.2c.4.4.8.8,1.3,1.2.1.1.3.2.4.4.6.6,1.2,1.3,1.7,2,0,.3,0,.6,0,1-.2,1.6-.6,2.9-.8,3.6,0-.7-.1-1.4,0-2.1,0-.3,0-.6,0-.9-.2-1.9-1.6-3.6-3.6-4-.4,0-.8,0-1.3,0-.4-1.1-.9-2.2-1.6-3.2-.3-.4-.6-.8-.9-1.2,0,0,0,0,0-.1.7.3,1.9,1,2.7,2.4l.3.6s.8,0,1.8.4ZM91.1,66.3c0,0,0,0,.1,0s0,0,0,0c1.3-.8,2.4-.9,2.8-.9.1.2.2.4.3.6-.4,0-1,0-1.8.4,0,0-.1.1-.1.2,0,0,0,.1.2.1h0c.8-.3,1.5-.3,1.8-.3,0,.2.2.4.3.6-.4,0-.8,0-1.3.2,0,0-.1.1-.1.2,0,0,0,.1.2.1h0c.6-.1,1-.2,1.4-.2,0,0,0,0,0,0,0,.1.1.3.1.4-.3,0-.7,0-1.1.2,0,0-.1.1-.1.2,0,0,0,.1.2.1h0c.4-.1.8-.1,1.1-.2.6,2.2-.7,2.7-1.6,3.5-.7.6-6.1-.5-6.7-.5-.6,0-1.6.3-1.7.9,0,.5.8.6,1,.6.2.1.5.2.5.3,0,.2-.3.1-.3.1,0,0-3.3,0-3.2-1.7.1-1.8.5-2.2.5-2.2,1.8-.9,3.5,0,3.5,0,.9-.4-2.2-1.3-2.9-1.3s-.2,0-.3,0c0,0-1.2.3-2.3,2,0,0,0,.2,0,.2,0,0,0,0,0,0,0,0,.1,0,.1,0,.3-.4.5-.7.7-.9,0,.1-.1.3-.2.4-.2.7-.4,1.7-.1,2.6-.5.9-1.3,1.5-1.8,1.9-.3,0-.5.2-.8.3.5-.5,1.1-1.2,1.6-2,0,0,0-.2,0-.2,0,0-.2,0-.2,0-.9,1.5-2.5,2.8-2.5,2.8,0,0,0,0,0,0-.3.2-.6.5-.9.9-1.8,2.1-2.1,4.6-2,6.7-.1-.2-.3-.5-.4-.7,0-.7,0-2,.2-3.1,0,0,0-.2-.1-.2,0,0-.2,0-.2.1-.2,1-.3,2.1-.3,2.8-.2-.2-.3-.3-.5-.4,0,0,0,0,0-.1,0,0-.2-2.1.7-4.2,0,0,0-.2,0-.2,0,0-.2,0-.2,0-.8,1.9-.7,3.8-.7,4.3-.2-.1-.4-.3-.6-.4,0-.3-.1-1.8.4-3.1,0,0,0-.2-.1-.2,0,0-.2,0-.2,0-.4,1.2-.4,2.4-.4,2.9-.2-.2-.3-.5-.5-.7,0-.4,0-1,.3-1.6,0,0,0-.2-.1-.2,0,0-.2,0-.2.1-.1.5-.2,1-.2,1.4-.1-.1-.3-.3-.4-.4,0-.5,0-1.1.3-1.8,0,0,0-.2-.1-.2,0,0-.2,0-.2.1-.2.6-.2,1.2-.3,1.6-.1,0-.2-.2-.3-.2,0-.5,0-1.3.3-2.2,0,0,0-.2-.1-.2,0,0-.2,0-.2.1-.2.8-.3,1.6-.3,2.1-.1,0-.2-.2-.4-.2,0-.4,0-1.3.2-2.5,0,0,0-.2-.1-.2,0,0-.2,0-.2.1-.3,1.1-.3,2-.3,2.4-.1,0-.2-.1-.3-.2,0-.4,0-.8.2-1.5,0,0,0-.2-.1-.2,0,0-.2,0-.2.1-.1.6-.2,1.1-.2,1.4,0,0-.2,0-.2,0-.1,0-.4-.1-.6-.2-.9-.3-1.7-.8-2.3-1.5.2-.4.3-.9.4-1.3.2.3.4.8.5,1.3,0,0,0,.2.2.2h0c0,0,.2,0,.1-.2,0-.7-.4-1.3-.7-1.7,0-.2,0-.4,0-.6.4.4,1,1,1.1,1.9,0,0,0,.1.2.1h0c0,0,.2,0,.1-.2-.1-1.2-.9-1.9-1.4-2.3h0c0-.2,0-.4,0-.6.4.2,1,.6,1.4,1.3.6,1,.7,1.6.7,1.6,0,0,0,.2.2.2h0c0,0,.2,0,.2-.2,0,0,0-.6-.7-1.8-.6-.9-1.4-1.3-1.7-1.5,0-.2,0-.4,0-.6.3,0,.6.2,1,.4,0,0,0,0,0,0,0,0,.1,0,.1,0,0,0,0-.2,0-.2-.4-.3-.9-.4-1.2-.5,0-.2,0-.4-.1-.6.5.2,1.4.5,1.9.9,0,0,0,0,.1,0s0,0,.1,0c0,0,0-.2,0-.2-.6-.5-1.9-.9-2.2-1,0-.3-.2-.5-.2-.7,1,.3,2.8,1,3.5,1.8,0,0,0,0,.1,0s0,0,.1,0c0,0,0-.2,0-.2-.8-1-3-1.7-3.9-2-.1-.3-.3-.6-.5-.9.8.4,1.8.8,2.8,1.1,2.4.8,2.7,2.9,2.7,3,0,0,0,.1.2.1h0c0,0,.2,0,.1-.2,0,0-.3-2.5-2.9-3.3-1.1-.4-2.3-.9-3.2-1.3,0-.1-.1-.2-.2-.3,1.3.2,4.1.7,4.9,1.4,0,0,0,0,.1,0s0,0,.1,0c0,0,0-.2,0-.2-.9-.9-4.2-1.4-5.4-1.6-.1-.1-.2-.3-.3-.4.3,0,.7,0,1.2,0s1.4,0,2.2-.3c0,0,.1-.1.1-.2,0,0-.1-.1-.2-.1-1.7.4-3,.2-3.6,0,0,0,0,0,0,0-.3-.2-.5-.5-.8-.7.5,0,1.1,0,1.8,0,1.1,0,2.4-.1,3.7-.5,0,0,.1-.1.1-.2,0,0-.1-.1-.2-.1-2.2.6-4.5.5-5.9.3,0,0-.1-.1-.2-.2h0c1,0,2.6,0,4.1-.4,0,0,.1-.1.1-.2,0,0-.1-.1-.2-.1-1.7.4-3.5.4-4.4.4-.1-.1-.2-.2-.3-.3h0c.8,0,1.8,0,2.9-.3,0,0,.1-.1.1-.2,0,0-.1-.1-.2-.1-1.2.3-2.4.3-3.2.3-.2-.2-.3-.3-.5-.5h.3c.6,0,1.4,0,2.3-.3,0,0,.1-.1.1-.2,0,0-.1-.1-.2-.1-1.2.3-2.2.4-2.9.3,0,0,0,0,0,0-.2-.2-.3-.3-.5-.5.3,0,.5,0,.9,0,.8,0,1.7,0,2.6-.4,0,0,.1-.1.1-.2,0,0-.1-.1-.2-.1-1.5.5-2.9.4-3.7.3-.2-.2-.3-.4-.5-.5.3,0,.9.1,1.5.1s1.9-.1,2.9-.5c0,0,.1-.1.1-.2,0,0-.1-.1-.2,0-2.1.8-4.3.4-4.6.3,0-.1-.2-.2-.3-.4,0,0,0,0,0-.1.4,0,1,0,1.5,0s1.6,0,2.3-.3c0,0,.1-.1.1-.2,0,0-.1-.1-.2-.1-1.3.4-3,.3-4,.1-.1-.1-.2-.3-.3-.4h2.9c0,0,.2-.1.2-.2s0-.2-.2-.2h-3.1c0,0,0-.1-.1-.2.2-.1.3-.2.5-.3h3.2c0,0,.2-.1.2-.2s0-.2-.2-.2h-2.8c.1,0,.3-.2.4-.3.5-.1,1.5-.3,3-.1,0,0,.2,0,.2-.1,0,0,0-.2-.1-.2-1.1-.1-2,0-2.6,0,.1-.1.2-.2.3-.3,0,0,.1-.1.2-.2.4,0,.9,0,1.5,0,0,0,.2,0,.2-.1,0,0,0-.2-.1-.2-.5,0-.9,0-1.2,0,0-.1.2-.2.2-.3.2,0,.4,0,.7,0,0,0,0,0,0,0,0,0,.2,0,.2-.1,0,0,0-.2-.1-.2-.2,0-.4,0-.5,0,.2-.2.3-.4.4-.7.3.4.8,1,1.7,1.4,0,0,0,0,0,0,0,0,.1,0,.2,0,0,0,0-.2,0-.2-1-.4-1.5-1-1.7-1.4,0,0,0-.1,0-.2.8.8,2.4,2,5.3,2.1h0c0,0,.2,0,.2-.2s0-.2-.2-.2c-2.9-.1-4.5-1.4-5.2-2.1,0-.1,0-.2.1-.3.7.6,2.1,1.6,4.6,1.8h0c0,0,.2,0,.2-.1,0,0,0-.2-.2-.2-2.5-.2-3.9-1.2-4.5-1.8,0,0,0-.2.1-.3.8.5,2.4,1.2,5,1.2s.6,0,.9,0c0,0,.2,0,.2-.2,0,0,0-.2-.2-.2-3.1.2-5-.7-5.8-1.2,0-.1.1-.3.2-.4.5.3,1.5.7,3.4.8h0c0,0,.2,0,.2-.1,0,0,0-.2-.2-.2-1.7-.1-2.7-.5-3.1-.8.1,0,.3-.2.4-.3,0,0,.1,0,.2,0,0,0,0,0,0,0,0,0,0,.2,0,.2,0,0,0,0,.1,0s0,0,0,0c0,0,.1-.1.3-.2.3,0,.6.1.9.1h0c0,0,.2,0,.2-.1,0,0,0-.2-.1-.2-.2,0-.4,0-.5,0,.3-.2.7-.5,1-.7,0,0,0-.2,0-.2s-.1,0-.2,0c-.4.3-.9.6-1.2.8,0,0-.1,0-.2,0,1.9-1.4,4-3.3,4-3.4,0,0,0-.2,0-.2s-.2,0-.2,0c0,0-2.3,2.1-4.2,3.5,0,0-.2,0-.2,0,0-.2.2-.4.2-.6h0s0,0,.1,0c1.6-1.4,3.6-3.6,3.6-3.6,0,0,0-.2,0-.2,0,0-.2,0-.2,0s-1.8,1.9-3.3,3.3c0-.2.1-.3.2-.5,1.6-1.5,3.4-3.8,3.4-3.8,0,0,0-.2,0-.2,0,0-.2,0-.2,0,0,0-1.5,1.8-2.9,3.3.2-.4.3-.7.5-1.1.3-.3,1.1-1,1.9-2,.6-.3,1.1-.6,1.5-1.1.4-.4.8-.8,1.1-1.3,0,.5-.1,1-.2,1.5-.3,1.7-1.4,2.2-1.5,2.2,0,0-.1.1,0,.2,0,0,0,.1.2.1s0,0,0,0c0,0,1.4-.6,1.6-2.4.1-.8.2-1.5.3-2.1.2-.3.4-.6.6-.9.4,2-.8,4.6-.8,4.6,0,0,0,.2,0,.2,0,0,0,0,0,0,0,0,.1,0,.1,0,0-.1,1.4-3.1.8-5.2.5-.9,1.1-1.9,1.6-2.9-.7,2.4-.9,4.8-.9,4.8,0,0,0,.2.2.2h0c0,0,.2,0,.2-.2,0,0,.3-3.8,1.6-6.6.3-.6.7-1.1,1-1.6,1.1-.2,2.2-.4,3.2-.4,3.4-.1,6.8.8,9.9,2.1.3.2.6-.3.3-.5-.2-.1-.3-.2-.5-.3.5,0,2.1-.3,3.6-.2h0c.1.1.3.3.4.4-1.5,0-2.7,0-2.7,0,0,0-.2,0-.1.2,0,0,0,.1.2.1h0s1.4-.2,2.9,0c0,.1.2.3.2.4-1.1,0-2.4.1-2.4.1,0,0-.2,0-.1.2,0,0,0,.1.2.1h0s1.4-.2,2.5-.1c0,.1,0,.3.1.4-1.3,0-3.3.3-3.4.3,0,0-.1,0-.1.2,0,0,0,.1.2.1h0s2.2-.3,3.4-.3c0,0,0,0,0,0,0,0,0,.2,0,.3h-2c0,.2-.2.2-.2.3,0,0,0,.2.2.2h1.9c0-.1,0,0,0,0,0,.1,0,.2,0,.4-1.1.2-2.8.3-2.8.3,0,0-.2,0-.2.2,0,0,0,.2.2.2h0c0,0,1.7,0,2.8-.3,0,.2,0,.4,0,.6-1.1.2-2.6.3-2.6.3,0,0-.2,0-.2.2,0,0,0,.2.2.2h0c0,0,1.5,0,2.6-.3,0,.1,0,.3,0,.4-.8.2-1.6.3-1.6.3,0,0-.2,0-.1.2,0,0,0,.2.2.2h0c0,0,.8,0,1.6-.3,0,.1,0,.3,0,.4-.9.3-1.9.3-2,.3,0,0-.2,0-.2.2,0,0,0,.2.2.2h0c0,0,1.1,0,2-.4,0,.2.1.4.2.5-.7.2-1.4.2-1.4.2,0,0-.2,0-.1.2,0,0,0,.2.2.2h0s.7,0,1.5-.2c0,.2.1.3.2.5-1.3.3-3.7.4-3.7.4,0,0-.2,0-.2.2,0,0,0,.2.2.2s.7,0,1.5-.1c.8,0,1.7-.2,2.4-.3,0,.2,0,.3,0,.5-1.4.2-3.2.4-3.2.4,0,0-.2,0-.2.2s0,.2.2.2h0c.1,0,1.9-.2,3.2-.4,0,.1,0,.3,0,.4-1.1.2-2.4.3-2.4.4,0,0-.2,0-.1.2,0,0,0,.1.2.1h0c0,0,1.3-.1,2.4-.3,0,.2,0,.3,0,.5-1.2.3-2.8.4-2.8.4,0,0,0,0,0,0l-2.6.2c0,0-.2,0-.1.2,0,0,0,.1.2.1h0l2-.2c0,.1-.2.3-.2.5h-1.1c0,0-.2.2-.2.2,0,0,0,.1.2.1h1.1c0,0,0,.2,0,.4,0,0-1,.3-2.3.2-.1-.2-.2-.4-.3-.6-1-2.2-1.7-1.6-2-1.6,0,0,0,0,0,0-.3-.1-.7-.2-1.5-.2-.4-.4-1-.9-1.5-1.2,0,0-.2,0-.2,0,0,0,0,.2,0,.2.4.2.9.6,1.2.9,0,0-.1,0-.1.2,0,0,0,0,0,0-.3-.2-1.2-.9-2-1.2,0,0-.2,0-.2,0,0,0,0,.2,0,.2.8.3,2,1.2,2,1.2,0,0,0,0,0,0,0,0,.1,0,.1,0,0,0,0-.2,0-.2,0,0,0,0,0,0,.1,0,.2,0,.3,0,.2.1.2.2.2.2,0,0,0,0,.1,0s0,0,.1,0c0,0,0-.2,0-.2,0,0,0,0,0,0,.5,0,.8.1,1,.2,0,.2,0,.4,0,.7-.4-.2-1.1-.3-2.3-.3,0,0-.2,0-.2.2,0,0,0,.2.2.2,1.7,0,2.2.2,2.4.4,0,.1,0,.2,0,.3-.5-.2-1.4-.4-2.9-.2,0,0-.2,0-.1.2,0,0,0,.2.2.1,1.9-.2,2.7.1,3,.3,0,0,0,.1,0,.2h0c-.4-.1-1-.2-2-.2,0,0-.2,0-.2.2,0,0,0,.2.2.2,1.2,0,1.8.1,2.1.3,0,.1,0,.2,0,.4-.4-.1-.9-.2-1.9-.2,0,0-.2,0-.2.2s0,.2.2.2c1.1,0,1.7.1,1.9.2,0,0,0,.1,0,.2,0,.1,0,.2,0,.3-.3,0-.8-.2-2.4-.1,0,0-.2,0-.2.2s0,.2.2.2c1.8,0,2.2,0,2.3.1,0,0,0,0,0,0-.1.5-.4.8-.9.8-6.1.1-9.6-.9-11,1.3-.7,1.1-2.9,4.3-4.1,4.4-2.8.3-4.1-.2-4.3-.3.1.1.7.7,2.2.9-.5.2-1.1.5-1.5,1,0,0,0,.2,0,.2s0,0,.1,0,0,0,.1,0c.6-.6,1.5-1,2-1.2,0,0,.1,0,.2,0-.3.1-.5.3-.7.5-.2.2-.4.4-.7.6-.4.4-1,.8-1,.9,0,0-.1.1,0,.2,0,0,0,0,.1,0s0,0,0,0c.1,0,.4-.3,1.1-.9.2-.2.5-.4.7-.6.3-.3.9-.5,1.2-.7.2,0,.3,0,.5,0,.6.2,2.2.7,4.9.6,0,0,.2,0,.2-.3s-.1-.3-.3-.3c-.2,0-2,.1-3.7-.1,1.4-.1,2.4-.7,3.1-1.4h1.2s.9,1.8,3.2,1.7c.4,0,.8,0,1.4,0,1.9-.2,2.3-1.6,2.3-1.6,0,0,.3-.7.9-.8.2,0,.3,0,.5,0h0c.2.5-.5.4-.7.8-.2.5-.4,1.3-1.2,1.9l-1.5.5c-.3.2-.1.7.2.7,1.2-.3,2.5-.8,3.8-1.2-1.1.6-2.7,1.4-4.6,1.8,0,0-.2.1-.1.2,0,0,0,.1.2.1s0,0,0,0c2.6-.5,4.9-1.9,5.6-2.4,0,0,0,0,0,0,3.2-.7,4.6,1.3,4.6,0,0-.2,0-.4,0-.7h0c.2-.4.6-.6.7-.6,0,0,.1-.1,0-.2,0,0-.1-.1-.2,0,0,0-.4.2-.6.5,0-.4-.2-.9-.3-1.3.2-.1.5-.3.9-.5,0,0,.1-.1,0-.2,0,0-.1-.1-.2,0-.3.1-.6.3-.8.4,0-.2,0-.3,0-.5h0s0,0,0,0c1.7-.8,2.8-.4,3.1-.3,0,0,0,0,0,0,0,0,0,0,0,0-.4,0-1,0-1.8,0,0,0-.1,0-.1.2,0,0,.1.1.2.1.9-.1,1.4-.1,1.8,0,0,.1,0,.2,0,.3-.4,0-1,0-1.7,0,0,0-.1.1-.1.2,0,0,.1.2.2.1.8-.1,1.4-.1,1.7,0,0,.2,0,.3,0,.5-.4,0-1,0-2,.2,0,0-.1.1-.1.2,0,0,.1.1.2.1,1-.3,1.6-.3,1.9-.2,0,.2,0,.3,0,.5-.4,0-.9,0-1.6.1,0,0-.1.1-.1.2,0,0,.1.1.2.1.7-.1,1.2-.2,1.6-.1,0,.2,0,.5.1.7-.4,0-1,0-2,.1,0,0-.1.1-.1.2,0,0,.1.1.2.1,1-.2,1.6-.2,2-.1,0,.2,0,.4.1.5-.4,0-1,0-1.7.3,0,0-.1.1-.1.2,0,0,.1.1.2.1.8-.2,1.3-.3,1.7-.2,0,.2.1.5.2.7-.4,0-1.1,0-2.1.4,0,0-.1.1-.1.2,0,0,0,.1.2.1h0c1.1-.4,1.7-.4,2.1-.3,0,0,0,.1,0,.2,0,.1,0,.3.1.4-.3,0-.8,0-1.4.2,0,0-.1.1-.1.2,0,0,0,.1.2.1h0c.7-.2,1.1-.2,1.4-.2,0,.2.2.5.2.7-.3,0-.8,0-1.2.1-.5.1-1,.4-1,.4,0,0-.1.1,0,.2,0,0,0,0,.1,0s0,0,0,0c0,0,.5-.2,1-.4.4-.1.9-.1,1.2-.1,0,.2.1.4.2.5-.3,0-.5,0-.8.1-.5.1-1.1.3-1.1.3,0,0-.1.1-.1.2,0,0,0,.1.2.1s0,0,0,0c0,0,.5-.2,1-.3.3,0,.6-.1.8-.1,0,.2.2.4.3.7-.3,0-.5,0-.8,0-.6.1-1.1.3-1.1.3,0,0-.1.1,0,.2,0,0,0,.1.2.1s0,0,0,0c0,0,.5-.2,1-.3.3,0,.6,0,.9,0,.1.3.2.5.3.8-.6,0-1.6.1-2.9.9,0,0-.1.2,0,.2ZM106.4,101.6c-.5,0-1.1.2-1.4.3,0-.1-.1-.2-.2-.4.4,0,1.2-.2,2-.4-.1.2-.3.3-.4.5ZM102.9,108.5c-.5-.6-1-1.2-1.7-1.7-.2-.2-.4-.3-.6-.4,0-.1.1-.3.2-.4,1.1-2.7.7-6.4-1.8-8.1-.2-.1-.3-.2-.5-.3-.5-.3-1-.4-1.5-.5-.3-.3-.5-.6-.8-.8-.9-1.1-1.6-2.4-2-3.7h0c0-1.6,0-3.2-.8-4.6h-.4c.4,1.8.2,3.4-.1,5.1-.2,1.3-.3,2.7,0,3.9,0,.3.2.6.3.9-.7.5-1.2,1.2-1.4,2.1-.2-.6-.4-1.3-.5-1.9h0s0,0,0,0c0-.2,0-.7.1-.9,0-.2,0-.7,0-.9.1-2.5,0-4.9-.5-7.4h-.6c0,.8.1,1.6.1,2.3,0,.9,0,1.8,0,2.6,0-.4-.2-.7-.3-1.1-.3-.9-.6-1.7-1.1-2.5l-.3.2c.4,1.2.6,2.5.8,3.8.1,1,.2,2.1.3,3.2,0,1.1-.2,2.2-.2,3.3,0,.8-.2,1.9,0,2.7,0,.7.2,1.4.5,2.1.4,1.1,1.2,2.2,2.3,2.8,1.4.8,3,.8,4.4.2-.7.4-1.5.6-2.4.6-1.3,0-2.5-.2-3.7-.7-.9-.4-1.6-.9-2.2-1.6-.5-.6-.8-1.2-1-2-.2-.9-.1-1.7,0-2.6.2-2.3.6-4.7.5-7.1,0-.3,0-.7-.1-1,.3-2.4,0-5.1-.6-7.1h-.3c.2,2.3.2,4.5-.2,6.6-.3,2-1.1,4.1-2.8,5.3-1,.7-2.4.8-3.5.4,0,0-.1,0-.2,0-.3-.1-.6-.3-.8-.5-1.1-1.1-.8-2.9-.3-4.2.3-.9,1-1.7,1.9-1.8.7-.1,1.4,0,2,.4,1.2.8,1.3,1.9.6,3.1-.5.8-1.3,1.1-2.1.6-.8-.4-.8-1.2-.5-2l-.3-.2c-.6,1-.4,2.1.4,2.6,1.5,1,2.8.2,3.5-1.3.9-2-.5-3.8-2.3-4.3,1.1-.8,1.4-2,1.5-3.4.2,1.1.6,1.8.6,1.8,0,0,.1-1.6.3-2.1.2-.5,1.8-3.3,4.1-5.3.5,0,1.9,0,2.3,0s.8-.3.8-.3c0,0,0,0,0,0,.3,1.7.8,2.6,1,3,0,.1,0,.2.1.3.2.4.3.8.5,1.2-.3-.1-.5-.2-.5-.2.2.4.7,1.3,1.6,2.4,1.5,2.9,3.2,5.7,4.3,6.8.3.3.6.7.9,1.1,1.5,1.9,3.2,4.6,3.6,6.5,0,.3.1.6.1,1,0,1.7-.6,3.4-.9,4.1ZM99,110.3c-.2,0-.3-.1-.5-.2-.3,0-.7-.2-1-.2,0,0-.2,0-.3,0-.2,0-.3,0-.5,0,.5-.2,1-.4,1.4-.7,0,0,0,0,0,0,.2.3.5.7.8,1.1ZM92.5,113.8c-.1-.2-.2-.4-.3-.7-.4-.6-.8-1.2-1.5-1.6-.3-.2-.6-.4-.9-.5.3,0,.5-.2.8-.2.3.1,1.3.8,1.7,2.3,0,.2.1.5.2.8ZM92.4,110.5c.8-.1,1.4-.2,1.4-.2,0,0,0,0,.1,0,.3,0,.6,0,.8,0,.2,0,.3,0,.5,0-.9.4-1.5,1-1.8,1.8-.3-.7-.7-1.2-1-1.5ZM98.7,106.5c-1.7.8-3.5,1.3-5.2.6-.8-.3-1.4-.8-1.9-1.5.5.3,1,.6,1.6.8,1.4.5,3,0,4.2-.9,0,0,.1-.2,0-.3,0,0-.2-.1-.3,0-.9.5-1.8.8-2.8.7-1.2-.1-2.2-.9-3-1.8-.2-.3-.4-.5-.6-.8,0-.5-.1-1,0-1.4,0,0,0-.7,0-1,.4.9.9,1.8,1.6,2.4.2.1.3.3.5.4,1.2.7,3,.7,3.8-.5.3-.5.4-1.1.2-1.7-.2-.5-.7-.9-1.2-1-.7-.2-1.4,0-1.6.9h.4c0,.1,0,.1,0,.1h0c.2-.4.8-.3,1.1,0,.3.3.2.8,0,1.1-.4.5-1.2.5-1.8.3-.2,0-.5-.2-.6-.4-.3-.3-.5-.6-.8-.9,0,0,.1,0,.1,0h0c0-1.2.5-2.4,1.5-3,1-.5,2.5-.4,3.5.1,0,0,0,0,0,0,1.4.8,2.1,2.5,2,4.1,0,1.3-.4,2.7-1.2,3.7,0,0,0,0,0,0ZM94.2,94.5c.3.8.7,1.6,1.2,2.4-.3,0-.5,0-.7.1-.1-.3-.2-.5-.2-.8-.1-.6-.2-1.2-.2-1.8ZM86.3,104.9c.1.6.3,1.2.6,1.6-1.2,1-2.5,1.3-3.5-.2,0,0,0,0-.1-.1.2-.6.6-1.2,1.1-1.7.2-.2.4-.4.6-.6.4-.4.9-.9,1.2-1.4,0,.8,0,1.6.1,2.4ZM79.2,114.2c-.7,0-1.4-.2-2.1-.4,1.1-.1,2.5-.4,3.8-1.1.1,0,.3,0,.4,0-.8.3-1.6.8-2.1,1.5ZM76.3,113.6c-.2,0-.5-.2-.7-.3,1,0,2.3-.2,3.9-.8.3,0,.6.1,1,.2-1.5.7-3.2.9-4.1.9ZM78.9,111c-.2,0-.3,0-.5-.1-1.3-1.1-3.7-3.5-4.1-6.5-.5-4.2,1.5-7,1.5-7,0,0,1.5-2,2-3.8.6-1.9,1.3-2.2,2-3.5.7-1.2,1.2-3.4,1.2-6.5s1.5-7,4.5-7.2c1,0,2,0,2.8,0-.4.1-.9.3-1.5.4-3.7.9-3.9,6.5-3.7,9.2.2,2.1-.5,4.5-.7,5.3-.4,0-.8-.1-1.2,0-2,.3-3,2.2-3.3,4-.1.6-.2,1.3,0,1.9,0,0,0,0,0,0-2.3,3.9-2.3,9.5,1.2,12.7.5.5,1,.9,1.6,1.2,0,0,0,0,.1.1-.6,0-1.2-.2-1.8-.3ZM74.5,89.7c1-.8,1.6-1.9,1.9-3.2.2,1.8.5,4,.5,5-.2.5-.4,1.1-.6,2-.4,1.5-1.2,2.6-1.2,2.6,0,0-3.2,4.7-2.3,8.6.7,2.8,1.9,4.5,3.8,5.7-2.7-.9-5.2-2.7-5.6-5.7-.6-3.7,1.5-6.2,3.3-9.2.2-.2.3-.6.4-.8.2-.4.3-.8.4-1.2,0-.1,0-.4,0-.5,0-.1,0-.3,0-.5,0-1-.2-2-.8-2.9ZM84.6,73.9h-.2c1,.2,2.1.3,2.8.3,1.1,0,2-.5,3.1-.4.1,0,.2,0,.3,0-.2.4-1.1,1.9-3.7,1.7-3.1-.3-6.2.8-6.9,3.6-.7,2.8-.7,3.8-.8,6,0,2.1-1.4,5.1-1.8,5.5,0,0-.1.2-.2.3.4-3.5,0-12.2,1.7-13.9,2.4-2.2,5.6-3.1,5.6-3.1ZM81.6,73.6c.4-.3.8-.8,1.1-1.3,0,.1.1.3.2.4,0,.1.2.2.2.3-.5.2-1,.4-1.5.5ZM91.8,78.5c0,.6,0,1.2.2,2,0,.4,0,.8.2,1.2h-1c-.5,0-.8,0-1,0,1-.7,1.5-2,1.7-3.2ZM90.9,75.1c.1-.3.2-.7.2-1.1,0,0,.1,0,.2,0-.1.4-.3.7-.5,1.1ZM94,78.2c.3,1.1,0,2.2-.4,3.3,0-.9-.3-1.8-.7-2.7-.4-1-.7-2.2-.9-2.9,0-.9,0-1.5,0-1.5,0,0,0,0,0,0,0,0,0,0,0,0,.4.2.7.3.8.4-.2,1.1.7,1.8,1.2,3.5ZM88.3,79.6c.7-.6,1.4-1.3,1.8-1.8,0,.2-.1.4-.2.7-.6,1.8-2.5,3.3-4,5,.4-1.3,1.3-2.9,2.4-3.8ZM84.7,84.9c-.2.4-.4.7-.5,1.1,0-1.5,0-3.2.7-4.9,1.1-3.3,3.1-3.7,4-3.7-.6.6-1.2,1.3-1.9,2.2-1.8,2.2-2.2,4.3-2.3,5.2ZM79.9,100.2s0,0,0,0c.6.3,1.2.4,1.8.4-.2.1-.5.2-.7.3-.4.2-.9.5-1.3.8-.6.5-1.2,1-1.6,1.7-.3.5-.5,1.1-.6,1.7-.4-2.1,0-4.3.7-6.3.4.5.9,1,1.5,1.3ZM79.3,109c-.1-.1-.2-.2-.3-.4-.4-.8-.6-1.6-.6-2.4s.3-2,1.1-2.8c.2-.2.4-.4.6-.6,0,0,.2-.2.3-.2.3-.2.7-.5,1.1-.6.4-.2.7-.3,1.1-.4-1.4,1.3-3.6,3.5-3.3,7.1,0,.1,0,.2,0,.3ZM94.3,85.6c.2.1.4.1.5.2,0,.8.2,1.2.5,1.5-.1,0-.2,0-.3,0-.3-.7-.6-1.3-.7-1.6ZM100.8,94.2s0,0,0,0c1.1,0,3.5-.1,6.3-.8l2.3.3c-3.3.7-6.9,1.1-8.1,1.2-.2-.2-.3-.4-.4-.6ZM100.5,93.9c-.1-.2-.2-.3-.3-.5.7,0,2.1,0,3.8-.3,0,0,0,0,0,0l1.9.2c-2.6.5-4.7.6-5.5.6ZM100,93.1c-.1-.2-.3-.4-.3-.6l3.2.4c-1.3.1-2.3.2-2.8.2ZM98.5,91.1c-.5-1-1-2.1-1.2-2.7l3.8,3-2.5-.3ZM96.8,84.8c-.3,2,0,2.7,0,2.7h-.1c0,0,0,0,0,0-1.7-.9-.6-3.5-.6-3.5,0,0,.8-1.3,1.3-3,0,1.3-.5,2.6-.7,3.9ZM96,81.4s-1.2,2-1.2,4.1c-.8-1.7.1-2.5.6-5.5.4-2.6-1.4-4.6-2-5.3h0c1.4.7,2.6,2,3,3.3.5,1.5-.4,3.4-.4,3.4ZM63.1,89.2c.4,0,.8-.2,1.2-.5.7-.6.8-1.5.6-2.3-.2-1.2-1.3-1.9-2.4-2.1-.9,0-1.8.1-2.5.7-1,.8-1.2,2.2-1,3.4.3,1.7,1.5,2.6,2.9,3-.1.2-.2.3-.3.5-2.2-1.1-3.5-2.3-3.9-3.4-.4-1,0-2.1.4-3.2.3-1,.6-1.9.5-3-.3-4.1-4.7-6.1-7.8-7.5-1.2-.5-2.4-1.1-2.7-1.5-.9-1.1-.3-3.7,0-4.8.4,1.5,1.1,2.9,2.3,3.9.7.6,1.6,1.2,2.6,1.4,0,0-.1.2-.1.2.4.2.9.5,1.3.7,2.9,1.8,5.5,4.9,5.1,8.6h.6c0-.2,0-.5,0-.7,0-1.4-.2-2.8-.8-4,.7.4,1.5.7,2.3.8.9.8,1.8,1.7,2.6,2.6,1.6,1.9,3.2,4.4,2.2,6.8-.7,1.7-3,2-4.6,1.3-1-.4-1.4-1.4-1.4-2.3,0-.7,0-1.4.5-1.9.4-.4,1.1-.6,1.7-.6.2,0,.4.1.6.2.5.2.9.6,1,1.2,0,.3,0,.7,0,1-.1.5-.5.8-1,.8v.9ZM56.5,88.9c.5,1.6,2,2.9,4.6,4.2h0c0,0,0,.1,0,.2-.2,0-.4,0-.7-.1-.7-.2-1.5-.4-2.1-.8-.9-.5-1.6-1.1-2-2-.8-1.8-.4-4,.2-5.8,0,0,0-.2,0-.3.4-1,.6-2.1.5-3.2.2.4.3.8.3,1.3,0,.8-.2,1.6-.5,2.5-.4,1.2-.8,2.6-.4,4ZM46.9,60.3c.6,0,1.3.2,2.3.3,0,1.2.2,2.4.4,3.6.3,1.7.6,3.4,1.3,5.1.8,2.1,2.6,3,4.8,2.3.7-.2,1.3-.5,1.9-.6v-.5c-.7-.1-1.4,0-2.1.1-1,.1-1.7.1-2.4-.5-.5-.4-.7-.8-.9-1.4-.4-.9-.7-1.8-.9-2.8,0-.2,0-.4-.1-.6.7.8,1.5,1.4,2.4,1.8,1,.5,2.2.8,3.3,1.2.4.1.8.2,1.1.4.9.4,1.7,1.1,2.4,1.8-.9.2-1.7.8-2.3,1.4-.7-.1-1.5,0-2.2.3-.7.2-1.3.5-2.1.4-.7,0-1.3-.4-1.8-.8-1.5-1.1-2.3-2.9-2.5-4.8,0-.3-.1-1.5-.2-1.7-.3-1.8-1-3.6-2.3-5ZM46.9,62.8c-.1,0-.3,0-.4-.1,0-.2,0-.3.1-.5.1.2.2.4.3.6ZM56.9,75.5c-.6-.7-1.3-1.2-2.1-1.8.4-.1.9-.3,1.2-.5.4-.2.8-.4,1.2-.5-.1.3-.2.5-.3.8-.2.6-.2,1.2,0,1.8ZM59.5,77.1c-.5-.4-.9-.9-1.1-1.5-.1-.5-.1-1.1,0-1.6.3-1.2,1.3-2.1,2.5-2.3.7-.1,1.4-.1,1.8.5.2.3.2.7.1,1,0,.5-.5.8-1,.9-.6.1-.8,0-1.2-.5h-.5c0,.1,0,.1,0,.2,0,.6.3,1.3,1,1.5.7.2,1.3,0,1.9-.3,1.5-.8,1.6-3.1.3-4.2-.6-.5-1.3-.6-2-.6l.4-.3c0,0-.1-.1-.2-.2-.7-.9-1.6-1.6-2.6-2.2-.5-.3-1.2-.5-1.8-.6-2.5-.5-5.2-1.3-6.4-3.7-.2-.9-.4-1.8-.6-2.7,1.2.2,2.4.2,3.6,0,.3,1.1,1.4,4,5.2,6.2,2.7,1.5,4.3,2.8,5.3,4.2,1.2,1.6,1.3,3.3.5,5.3,0,0,0,.1,0,.2-.2.2-.4.5-.6.7-1.3,1.1-3.1.8-4.4-.2ZM59.4,65.9c-3.3-1.9-4.2-4.3-4.5-5.3.8-.2,1.6-.4,2.4-.8,1,2.1,3.6,4.7,5,6,.4.4.9.9,1.3,1.2,1.2,1.2,2,2.9,2.2,4.6-1.1-2.3-3.7-4.2-6.3-5.7ZM66.1,76.7c.7.7,1.6,1.2,2.6,1.5.1,0,.4.1.5.1.7.2,1.3.5,2,.9-.6-.2-1.2-.3-1.8-.3-1.2-.1-2.5-.1-3.6-.6-.2,0-.4-.2-.5-.3.4-.4.7-.8,1-1.3ZM63.1,52.8s0,0,0,0h0s0,0,0,0ZM65,48.2c.1-.3.2-.6.3-.8.2,0,.4-.1.6-.2-.4.4-.7.7-.9,1ZM69.6,38c.7-1,1.2-2.2,1.9-3.2,1.4-2.2,3.5-2.9,5.9-2.4-.6.2-1.2.4-1.7.7-1.3.8-2.3,2-3.2,3.3-.5.6-1.1,1.1-1.6,1.6-.8.7-1.7,1.3-2.5,1.8.5-.5.9-1.1,1.3-1.8ZM65.6,40.7c-2,.5-4.2.3-6.7-.4-1.4-.3-2.9-.8-4.5-.7-.2,0-.4,0-.6,0,1.6-1.2,3.6-2,5.5-1.2.2,0,.7.3.9.3,1.5.6,3.5,1.4,5,.3.6-.4,1.1-1,1.5-1.6.5-.7,1-1.5,1.5-2.2,1.2-1.9,2.5-4.5,4.8-5.1,1-.2,2.3-.1,3.3.3.4.2.7.4,1,.6-1.7-.6-3.8-.4-5.3.7-.8.5-1.4,1.3-1.8,2-.6,1.1-1.1,2.2-1.7,3.3-.8,1.3-1.6,2.6-2.9,3.4ZM77.5,33.6c.8-.3,1.7-.3,2.5-.1.4.4.7.7,1.1,1,.4.3.8.7,1.2,1-.2,0-.5-.1-.7-.2-2.2-.5-4.5-.5-6.7.1,0,0,0,0-.1,0,.8-.9,1.6-1.6,2.7-1.9ZM86.6,37.2s0,0,0-.1c.2-.3.5-.5.9-.6,0,0,.1,0,.2,0,0,0,.2,0,.2,0,.3,0,.7,0,1,0,.4.1.7.3,1,.5-1.7,0-3.3.2-3.4.2,0,0,0,0,0,0ZM89,50c0,.2,0,.3,0,.5-.3,0-1,.2-1.7.2,0-.1-.2-.3-.2-.5.9,0,1.5-.1,1.9-.2ZM86.9,49.9c0-.1-.1-.3-.2-.4.2,0,.3,0,.5,0,.9,0,1.5-.2,1.7-.2,0,.1,0,.3,0,.4-.4,0-1.1.2-2,.2ZM89,50.8c0,.5,0,.9,0,.9,0,0-.7.4-1,.1-.1-.1-.3-.4-.5-.8.7,0,1.2,0,1.6-.2ZM89.2,54.3c.7-.2,1.4-.1,1.7,0,0,0,.2.2.3.3-.5-.1-1.4-.2-2.7.4.2-.3.4-.5.8-.6ZM90.8,50.1c.2,0,.5,0,.8,0s.8,0,1.3,0c0,.3,0,.6-.1.7-.2.3-1.1-.2-1.4-.4,0,0-.1,0-.2-.1-.1,0-.2-.1-.4-.2ZM90.3,49.7s0,0,0-.1v-.3c0,0,.4,0,.7,0,.6,0,1.4,0,2-.1,0,.2,0,.4,0,.6-1.4.2-2.3,0-2.6,0ZM90.1,49v-.4c.4,0,1.7-.2,2.6-.4,0,.2.1.5.2.7h0c-.9.2-2.4.1-2.8.1ZM89.9,48.3v-.6c-.1,0-.1,0-.1,0,.3,0,1.7-.2,2.7-.4,0,.2,0,.4.1.6-.9.3-2.4.4-2.7.4ZM80.8,55.6c0,.6-.5,2-2.2,1.7-1.6-.3-1.1-1.4-1.8-1.6-.5-.2-1.6-.2-2.1-.3-.1,0,0-.2,0-.2l2-.2s1.8,0,2.8,0c1,0,1.4,0,1.3.7ZM93.7,43c0,0,0-.1-.1-.1-.3-.1-.6.2-.6.2,0,0,0,0,0,0,0-.1,0-.3,0-.4.3-.3.6-.7,1.1-.7,0,0-.1.5-.3,1ZM86.8,35.9c-.3.2-.5.5-.7.9,0,0,0,.1,0,.2,0,0,0,0-.1,0,.1-.3.3-.6.3-.6-1.5-.7-2.8-1.7-4.1-2.8-1.3-1.2-2.4-2.5-3.9-3.5-.6-.4-1.3-.8-2-1-.7-.2-1.4-.3-2.1-.3-1.5,0-3,.6-4.1,1.6-1.1,1-1.8,2.2-2.6,3.4.7-1.5,1.7-2.9,2.9-3.9,2.6-2.3,6.6-2.7,9.8-1.4,1.6.7,2.9,1.8,4,3.1,0,.1.1.2.3.3,1,1.3,1.8,2.7,2.4,4.2ZM49.3,51.1c.6-2.1,2-2.8,4.1-2.4.9.1,1.7.3,2.6.5.3,0,.6.1.8.2-.3,0-.5.2-.8.2-1.1.1-2.3,0-3.4,0-.6,0-1.2,0-1.8.4-1,.6-1.2,1.7-.8,2.7-.6,0-1.3,0-1.9,0,0-1.1.2-2.2.4-3.2,1-3.5,3.3-4.7,6.7-4.6.9,0,1.8.3,2.6.7.6.3,1.3.7,1.9,1.1-.2.4-.4.8-.7,1-.7.5-2,.2-2.9,0-.9-.2-1.8-.3-2.7-.4-.7,0-1.3,0-2,0-1.8.4-3,2-2.9,3.8h.6ZM57.1,50.5c-1.2.9-2.7,1.4-4.2,1.7-.7.1-1.4.2-2.1.2-.2-.5-.2-1.2.2-1.6.3-.3.6-.4,1-.4,1.4,0,2.7.3,4.2.2.3,0,.6,0,.9-.2ZM45.7,60.9c0,0,.1.2.2.2-.1.4-.3.9-.4,1.4-.1,0-.2,0-.3,0,.1-.7.3-1.4.4-1.7ZM44.9,62.7c0,0-.2,0-.2,0,0-1.1.2-2,.2-2.4,0,0,.1,0,.2,0,.1.1.2.2.3.3-.1.3-.4,1.2-.5,2ZM46.1,61.5c0,.1.2.2.3.4,0,.2-.1.5-.2.8-.1,0-.2,0-.3,0,0-.4.2-.8.3-1.1ZM44.6,60.5c0,.5-.2,1.4-.2,2.4,0,0-.2,0-.3.1-.1-.9-.2-1.8-.2-2.3.3,0,.5-.2.7-.2ZM38,64.8c.6-.4,1.3-.9,1.8-1.6,0,0,0,.1,0,.2.3.4.6.7.9,1.1h0c-.3,1-.4,2-.4,2.9-.1,2.6.3,4.8,1.9,6.9.4.5.7.9,1.1,1.3-1.5-.8-2.9-1.7-3.6-2.6-2.4-3.1-1.7-7.7-1.7-7.8,0-.2,0-.4-.1-.5ZM42.1,71.3c-.4-1.8-.4-3.6-.2-5.4.2.2.4.5.5.7.4.6,1,1.1,1.7,1.4-.7,1.5-1.3,4.4.9,6.9.8.9,1.8,1.7,2.9,2.4,1.8,1.3,3.5,2.5,3.7,4.4-.3-.7-.8-1.3-1.5-2-1.4-1.3-3.4-2.3-5.3-3.4,0,0-.2-.1-.3-.2-.7-1.7-1.9-3.1-2.3-4.9ZM54.2,78.7l-.4.3c0,.1.2.3.3.4.6,1.1,1.1,2.6-.1,3.5-.2.2-.5.3-.8.5-.2,0-.3.2-.5.2.4-1.5.3-2.9-.5-4.1-.8-1.3-2.2-2.3-3.5-3.2-1-.7-2-1.4-2.6-2.2-2-2.3-.9-4.9-.6-5.5.4.1.9.2,1.3.2-.4,1.4-.9,3.9.4,5.4.5.7,1.7,1.2,3.2,1.8,1.7.8,3.7,1.7,5.2,2.9,0,0,0,0,0,0,.3,1.3.5,2.6.2,3.9,0,.4-.2.7-.3,1.1,0,0-.1.1-.1.2,0,0,0,.1,0,.1-.3.5-.7.9-1.2,1.2-1.5,1.1-3,2.3-3.5,4.1-.3,1.3,0,2.7.7,3.9.7,1.1,2,1.8,3.2,2.1,1,.3,2,.4,3,.4v-.4c-.5,0-1,0-1.4-.2-.9-.2-1.9-.5-2.7-.9-.8-.4-1.5-1.1-1.7-2-.5-1.3-.5-2.7.4-3.8.2-.2.4-.4.6-.6,0,.6,0,1.1,0,1.7.3,2,1.5,3.5,3.4,4.2,1,.4,2.1.5,3.2.5v-.5c-1.2-.1-2.3-.4-3.3-.9-2.2-1.2-2.6-3.6-1.8-5.9,0,0-.1,0-.3,0,.3-.2.6-.4.9-.6,0,0,0,0,0,0-.2,1.5-.1,3.1.6,4.4.5,1.1,1.5,1.8,2.6,2.3.8.4,1.6.6,2.4.7.2,0,.4,0,.6,0-.4,1.5-.3,3,0,4.4.2.8.5,1.7.8,2.4,0,.1.2.2.3.1s.2-.2.2-.3c-.5-1.6-.8-3.2-.5-4.8.2-1.5.8-3,1.8-4.2,0,0,0,0,0,0,1.8,0,3.1-.9,3.7-2.1,0,.8,0,1.6-.4,2.2-.6.9-1.7,1.3-2.5,2-.8.7-1.2,1.7-1.5,2.7,0,.1-.1.5-.1.6,0,.1,0,.5,0,.6,0,.2,0,.5,0,.7-.2.6-.3,1.2-.3,1.8,0,.7.2,1.4.5,2h0c-1.2.1-2.3,0-3,0-.2-.2-.5-.4-.7-.5.2,0,.4,0,.6,0,.6,0,1.2,0,1.9,0,0,0,.2,0,.2-.2,0,0,0-.2-.2-.1-1.1.1-2.2,0-2.9,0-.2-.1-.3-.2-.5-.3,0,0-.1,0-.2-.1h.4c.6,0,1.2,0,1.9,0,0,0,.2,0,.1-.2,0,0,0-.2-.2-.2-1,0-1.9.1-2.6,0-.2-.1-.3-.2-.5-.4.4,0,.9,0,1.6,0,0,0,.2,0,.1-.2,0,0,0-.2-.2-.1-.9,0-1.5,0-1.9,0-.2-.2-.5-.4-.7-.6.2,0,.5,0,.8,0,.6,0,1.2,0,1.9,0,0,0,.2,0,.1-.2,0,0,0-.2-.2-.1-1.2.1-2.3,0-3,0-.4-.3-.7-.6-1.1-.9.7.1,1.4.2,2.1.2,1.4,0,2.7,0,4.1-.2l-.2-1.3c-5.6.5-12.4-.5-11.7-7.6.4-3.2,2.5-3.5,4.9-4.8.6-.4,1.3-.9,1.6-1.6.6-1.4-.1-3-1.1-4ZM67.5,92.1c.2-.3.3-.6.4-.9.1.8,0,1.6-.5,2.1-.4.5-1,.8-1.5,1.2-.8.6-1.7,1.3-2.4,2.2.2-.9.6-1.8,1.3-2.4.4-.4,1-.7,1.5-1,.4-.3.9-.7,1.2-1.1ZM61.8,103.8c-.2-.1-.4-.3-.6-.4h.3c.6,0,1.2,0,1.8,0,.1.1.2.3.3.4-.7,0-1.3,0-1.9,0ZM64,104h0c.2.1.3.3.5.4-.8,0-1.3,0-1.7,0-.2-.1-.3-.2-.5-.4.5,0,1.1,0,1.7,0ZM60.8,103.1c-.2-.2-.5-.3-.7-.5.2,0,.5,0,.7,0,.6,0,1.2,0,1.9,0,0,0,.1,0,.1,0,.1.2.2.4.3.6-.9,0-1.7,0-2.4,0ZM67.8,97.6c-.3.6-.5,1.2-.8,1.8-.2.5-.3,1-.4,1.5-.3,0-.8.2-1.1,0-.2-.1-.3-.4-.3-.6-.1-.6.2-1,.6-1.4.6-.5,1.3-.8,2-1.3ZM87.6,115.6c.2.5.2,1,.2,1.5,0,1.7-1.1,3.2-2.8,3.5-1.2.3-2.8.1-3.8-.7-.5-.4-.8-.9-1.1-1.5-.3-.7-.4-1.4-.4-2.1,0-.7.2-1.2.7-1.7.9-.9,2.4-1.2,3.5-.5.5.3,1,.8,1,1.4,0,.3,0,.7-.2,1,0,.1-.2.3-.4.4,0,0-.1.1-.2.2-.3.3-.7.3-1.1.3-.4,0-.7-.2-1.1-.5-.5-.4-.5-1,0-1.4.2-.2.6-.4.9-.3.1,0,.3.1.4.2l.3-.3c-.5-.7-1.4-.6-2-.1-.7.7-.8,1.7,0,2.5.1.1.3.2.4.3.4.3.9.5,1.4.5.9,0,1.8-.6,2.2-1.4.1-.2.2-.4.2-.6,0-.3.1-.5.1-.8,0-1.1-.8-2-1.8-2.5.4,0,.8.2,1.1.3,1.2.4,2,1.2,2.3,2.3ZM87.2,110.8c-1,.5-2.6.7-4,.4-.4,0-.8-.2-1.2-.4-.9-.5-1.4-1.2-1.4-2.2-.2-3.3,2-5.2,3.3-6.4.2-.2.4-.3.5-.5.5-.4,1.1-.9,1.6-1.4-.1.2-.2.4-.4.7-.4.7-1,1.4-1.5,1.9-.2.2-.5.4-.7.6-1.2,1.3-2.1,3.3-.9,4.9.5.7,1.4,1.2,2.2,1.4.1,0,.3,0,.4,0,.7,0,1.3,0,1.9-.2.1,0,.2-.1.2-.3,0-.2-.1-.3-.3-.3-.4,0-.9,0-1.3-.2-.1,0-.3,0-.4,0-.5-.2-.9-.4-1.3-.7,1.3.4,2.5-.1,3.4-1,0,0,.1.2.2.2.8.9,1.8,1.6,3,2.1-1.1.3-2.3.7-3.4,1.3ZM91.6,119.2c-.9-1.2-1-2.8-1.2-4.6,0-.1,0-.3,0-.4,0,0,0,0,0,0,0-.1,0-.3-.1-.4-.2-.5-.4-1.1-.8-1.5.7.4,1.2.9,1.6,1.6.3.5.5,1.1.6,1.7,0,.2,0,.4.1.6.1.9.3,1.8.6,2.7.1.5.3,1,.5,1.4-.5-.3-.9-.7-1.2-1.1ZM99.3,122.6c.7.8,1,1.7.9,2.7,0,.3,0,.6-.2.8-.2.4-.6.7-1.1.8h0c0,0-.2,0-.3,0,.2-.1.4-.4.5-.6h0c0-.1,0-.2,0-.3.2-1.1-.5-2.1-1.3-2.7-.7-.5-1.5-.9-2.2-1.5-.2-.2-.5-.4-.7-.6,0,0-.1-.2-.2-.2-.3-.4-.6-.8-.8-1.2-.2-.6-.4-1.1-.6-1.7,0,0,0,0,0,0,.9,1,1.9,1.9,3.1,2.7.3.2.7.4,1,.6.6.3,1.2.8,1.6,1.3ZM100.4,119c-.6.2-1.3.3-2,.2,0,0-.2,0-.3,0-1.2-.3-2.3-.9-3-1.9-.2-.3-.4-.6-.5-.9-.3-.8-.3-1.6-.3-2.4,0-1.8,1-2.7,2.7-2.8.8,0,1.5.2,2.1.6.3.2.5.4.7.7,0,.5,0,.9-.2,1.4-.2.5-.5.9-.9,1-.4.1-1,.1-1.3-.1-.4-.3-.4-.9-.4-1.4l-.4-.2c-.2.3-.3.7-.3,1.1,0,.8.5,1.4,1.2,1.6.5.2,1.1.2,1.6,0,.8-.3,1.3-1.1,1.4-1.8,0,.9-.3,1.9-1.1,2.5-.3.3-.7.4-1.1.6v.4c.3,0,.5,0,.8,0,.8-.1,1.4-.6,1.9-1.2.6-.8.7-1.6.7-2.5,0-.1,0-.2,0-.4,0-.2,0-.4,0-.6-.4-1.9-1.6-3.7-2.3-4.6,0,0,0,0,0,0,.3-.3.5-.6.8-1,0,0,.2.1.3.2,1.1.9,2,2.1,2.5,3.4.1.3.2.5.3.8.4,1.1.5,2.4.4,3.5-.1,1.9-1.2,3.2-3.1,3.7ZM105.3,102.8c0-.2-.1-.4-.2-.6.3,0,.6-.1,1-.2-.3.3-.5.6-.8.8ZM107.7,100s0,0,0,0c0,0,0,0,0,0,0,0-.1-.1-.2-.1-.2,0-.9.2-.9.2,0,0-.1.1-.1.2,0,0,0,.1.2.1s0,0,0,0c0,0,.7-.2.9-.2-.2.2-.3.4-.5.5-1,.2-2.1.4-2.5.5,0-.2-.2-.3-.2-.5.5,0,1.1-.1,1.7-.2,0,0,.1-.1.1-.2,0,0,0-.1-.2-.1-.6.1-1.3.2-1.8.2-.1-.2-.2-.5-.4-.7.8,0,1.8-.1,3-.3,0,0,.1-.1.1-.2,0,0,0-.2-.2-.1-1.3.2-2.4.3-3.2.3-.1-.2-.3-.5-.4-.7,1,0,2.7-.2,4.8-.6,0,0,.1-.1.1-.2,0,0-.1-.1-.2-.1-2.2.4-4,.5-4.9.6-.1-.3-.3-.5-.4-.8,1.3,0,3.8-.3,6.7-1,0,0,.1-.1.1-.2,0,0-.1-.1-.2-.1-3,.7-5.6.9-6.8,1-.2-.3-.3-.7-.5-1,1.3,0,3.9-.2,6.8-1,0,0,.1-.1.1-.2,0,0-.1-.1-.2-.1-3.1.8-5.8.9-6.9,1-.2-.3-.3-.6-.5-.8,1.5-.1,5.4-.5,8.7-1.3,0,0,0,0,0,0l1.9.2c-1.3,2.1-2.8,4.1-4.4,6ZM114.3,90.3c-3.3-.4-14.1-1.3-14.1-1.3l-1.1-.9h1.2s-1.6-.6-1.5-2.6c.1-2,3.9-4.1,2.9-7.6-1.1-3.6-4.1-4.5-4.1-4.5l2.7-1.8s.9-2.4.3-3.1c-.6-.6-5.6-9.2-5.6-9.2l.8-2.7s3.2-1.7,2.4-5c0,0-1.7-.8-2.2-2.3,0,0,4.9-5.7,3.9-9.1-1.1-3.4-4-5.2-4-5.2,0,0,5.1-5.6,2-8.6-3.2-3-9.1-3.7-10.8-5.8,0,0-.3-5.8-4.9-6-.8-.3-1.6-.5-2.5-.5-.5,0-1,0-1.4,0,.5-1.2.7-2.6.5-3.9,0,0,0-.2-.1-.2,0-.2,0-.5,0-.7,0,0-2.7,3.6-6.6,4-1.4.2-2.5.8-3.2,1.6-.7,0-1.3-.1-2-.3-1.8-.3-3.6-1-5.1-2-3.8-2.2-8.7-.5-11.1,3-.6.8-1,1.7-1.4,2.7,0,.1,0,.2,0,.3-.3,0-.7,0-1,0-.4,0-1.1,0-1.4,0-4.5.2-7.8,2.2-9.5,6.4-.3.2-1.8,1.2-4.4,1.7-1.7.4-7.5,2.1-8.1,6.8-.2,2,.6,4,1.4,5.9.6,1.5,1.2,2.8,1.1,3.9-.7-.1-1.7-.2-2.7,0-1.1.2-2,.9-2.5,1.8-.8,1.3-.9,3.1-.4,4.8.6,1.9.4,2.5-.1,4.3,0,.3-.2.7-.3,1.1-.8,2.7.4,4,.7,4.2-1.1.8-2.1,1.8-2.6,3.2-.7,1.6-.8,3.5-.2,5.2,1.1,2.8,4.2,4.1,7.1,4.2,0,0,0,.1,0,.2-.2,1.1,0,2.3.1,3.4,0,.1.1.2.3.2.1,0,.2-.1.2-.2-.2-1.8,0-3.6.9-5.1.9-1.7,2.5-3,4.3-3.6.3,0,.6-.4.6-.7.6,0,2.3,0,4.2-.8,0,.2,0,.4,0,.7,0,0-.1,0-.1,0-.2,1.4-.6,2.9-1.3,4-.3.5-.6.7-1,1-1.1.8-2.4,1.7-3,3.1-.5,1-.5,2.3-.1,3.3.2.7.8,1.2,1.3,1.6,1,.7,2.1,1.1,3.3,1.3,0,0,.2,0,.2,0,1,0,1.9.1,2.9.2,2.9.2,5.8.4,8.7,1l.2-.5c-1.4-.6-2.9-.8-4.3-1.1-1.5-.3-2.9-.5-4.4-.6-.9,0-2.2-.2-2.9-.3,0,0-.2,0-.2,0-1.3-.3-3.2-1-3.5-2.4-.4-2.6,1.6-3.4,3.3-4.9.6-.5,1-1.2,1.3-2,0,.4.2.9.4,1.3-.4.7-1,1.4-1.7,1.8-.6.4-1.3.7-1.8,1.3-.8,1-.6,2.5.2,3.4l.4-.2c-.3-.9-.4-1.8.3-2.4.2-.2.5-.4.8-.5.3-.1.6-.3.8-.4.6-.4,1.2-.9,1.6-1.4,0,0,0,.1,0,.2h-.2c-.2,1.2-.8,1.4-1.6,2.2-.5.5-.9,1-.9,1.7,0,.7.4,1.3,1,1.7l.3-.4c-.3-.5-.5-1.1,0-1.6.5-.6,1.2-1,1.7-1.6.2-.3.3-.5.4-.8,1.1,1.3,3.1,2.4,5.3,3.6,3.6,1.9,7.3,3.9,6.4,6.9,0,0,0,0,0,.1-.3.1-.5.3-.7.4-.3-1.1-1.4-1.7-2.3-2.1-2.6-1.1-5.4-1.3-8.1-1.6-.8,0-1.6,0-2.3,0-1.5,0-3-.2-4.3-.7-1.3-.4-2.6-1.1-3.3-2.3-1.7-2.8,0-5.3,2.5-6.9.9-.6,1.8-1.2,2.6-2,.4-.4.8-.8,1-1.4l-.8-.3h0c0,0-.2.2-.3.3-.9.8-2,1.4-3,2-1.9,1.1-3.6,2.8-4,5.1-.2,1.3.1,2.7.8,3.8.9,1.5,2.5,2.4,4.1,3,1.9.6,3.9.8,5.9.8,1.1,0,2.3.1,3.4.3.3,0,.6,0,1,.1,0,.2,0,.4,0,.6,0,2.6.2,5.7.3,8.5,0,0,0,0,0,0,0,0,0,0,0,0,0,1.1,0,2.2,0,3.2v.6c0,.1,0,.3,0,.4,0,.2-.1.4-.2.6-.2.3-.5.6-.7.9-2,2.3-4.3,4.4-7.2,5.4-.3.1-.8.2-1.1.3-2.1.5-4.9,1.2-6.9,1.7-.9.2-1.7.4-2.6.6-11.6-10.6-18.9-25.9-18.9-42.8C5,31,31,5,63,5s58,26,58,58-2.5,19.1-6.8,27.2Z"></path>
    <path class="st2" d="M90.7,84.8c-1.9,0-2.7.3-3,.5,0,0,0,.1,0,.1h.2s.2.1.2.1c0,0,.1.2.3.4.2.3.4.7,1,.7s2.2,0,2.5-.4c.2-.4.9-.7,1.1-.6,0,0,.1,0,0,0,0-.2-.5-.8-2.4-.8Z"></path>
    <path class="st2" d="M61.3,28.9c5.6,1,7.4-1.6,8.5-2.8,1.2-1.3,3.5-2.6,3.5-2.6-4.1-2.2-7.5-1.6-10.1,0,1.6-3,.1-7.2.1-7.2-5.3,5.2-5.7,12.7-5.7,12.7h.1c-.2.1-.3.3-.3.3,0,0,1.6-.8,3.7-.4Z"></path>
    <path class="st2" d="M53.8,36.7c5.5-1.3,6.5-5.5,6.5-5.5-3.4-.9-7.4,1.5-7.4,1.5,2.6-4.3-.2-8.4-.2-8.4-.2.9-1.1,1.4-4,6.5-2.9,5.1-.4,7.4-.4,7.4,0,0,3-.9,5.5-1.5Z"></path>
    <path class="st2" d="M50.1,40.8c-2.5-.8-4.9.5-4.9.5,0-4-2.6-5.4-2.6-5.4-3.2,4.9-.3,10-.3,10,6.4-.9,7.9-5.1,7.9-5.1Z"></path>
    <path class="st2" d="M37.1,56c7.7-1.4,9.6-7.9,9.6-7.9-2.9.1-7.2,2.9-7.2,2.9,0-2,.1-2.6-.2-4-.4-1.6-1.4-3.8-1.4-3.8,0,0-2.4,1.4-3.2,4.6-1.2,4.8,2.4,8.2,2.4,8.2Z"></path>
    <path class="st2" d="M70.6,63.8l-1,.5c0,0-.1.1,0,.2,0,0,0,0,.1,0s0,0,0,0l1-.5c0,0,.1-.1,0-.2,0,0-.1-.1-.2,0Z"></path>
    <path class="st2" d="M43.6,100s.7.2,1.7.4c0,0,0,0,0,0,0,0,.1,0,.2-.1,0,0,0-.2-.1-.2-1-.2-1.7-.4-1.7-.4,0,0-.2,0-.2.1s0,.2.1.2Z"></path>
    <path class="st2" d="M43,100.8s.3.1,1.3.3c0,0,0,0,0,0,0,0,.1,0,.2-.1,0,0,0-.2-.1-.2-1-.1-1.2-.2-1.2-.2,0,0-.2,0-.2,0,0,0,0,.2,0,.2Z"></path>
    <path class="st2" d="M42.2,101.4s1.6.4,2.6.5c0,0,0,0,0,0,0,0,.1,0,.2-.1,0,0,0-.2-.1-.2-1-.2-2.5-.5-2.6-.5,0,0-.2,0-.2.1,0,0,0,.2.1.2Z"></path>
    <path class="st2" d="M43.4,102.2c-1-.2-1.9-.4-1.9-.4,0,0-.2,0-.2.1,0,0,0,.2.1.2,0,0,.9.3,1.9.4,0,0,0,0,0,0,0,0,.1,0,.2-.1,0,0,0-.2-.1-.2Z"></path>
    <path class="st2" d="M39.4,103.4s.9.3,1.9.6c0,0,0,0,0,0,0,0,.1,0,.2-.1,0,0,0-.2-.1-.2-1-.2-1.8-.6-1.8-.6,0,0-.2,0-.2,0,0,0,0,.2,0,.2Z"></path>
    <path class="st2" d="M39.8,104.2c-.7-.2-1.3-.5-1.3-.5,0,0-.2,0-.2,0,0,0,0,.2,0,.2,0,0,.6.3,1.4.6,0,0,0,0,0,0,0,0,.1,0,.2-.1,0,0,0-.2-.1-.2Z"></path>
    <path class="st2" d="M41.8,104.8c-.7-.2-1.3-.4-1.3-.4,0,0-.2,0-.2,0s0,.2,0,.2c0,0,.6.3,1.4.4,0,0,0,0,0,0,0,0,.1,0,.2-.1,0,0,0-.2-.1-.2Z"></path>
    <path class="st2" d="M41.9,102.8c-.8-.2-1.4-.3-1.4-.3,0,0-.2,0-.2.1,0,0,0,.2.1.2,0,0,.5.1,1.4.3,0,0,0,0,0,0,0,0,.1,0,.2-.1,0,0,0-.2-.1-.2Z"></path>
    <path class="st2" d="M43.5,103.3c-.6-.2-1-.3-1-.3,0,0-.2,0-.2.1s0,.2.1.2c0,0,.4.1,1,.3,0,0,0,0,0,0,0,0,.1,0,.2-.1,0,0,0-.2-.1-.2Z"></path>
    <path class="st2" d="M32.2,108.4c0,0,.1,0,.2-.1,0,0,0-.2-.1-.2-1.6-.3-2.9-.6-2.9-.7,0,0-.2,0-.2.1,0,0,0,.2.1.2,0,0,1.3.4,2.9.7,0,0,0,0,0,0Z"></path>
    <path class="st2" d="M34.1,107.5c-2-.2-3.7-.6-3.7-.6,0,0-.2,0-.2.1,0,0,0,.2.1.2,0,0,1.8.4,3.8.6,0,0,0,0,0,0,0,0,.1,0,.2-.1,0,0,0-.2-.1-.2Z"></path>
    <path class="st2" d="M33.5,109.2c-2.1-.4-3.8-.9-3.8-1,0,0-.2,0-.2,0,0,0,0,.2,0,.2,0,0,1.7.6,3.8,1,0,0,0,0,0,0,0,0,.1,0,.2-.1,0,0,0-.2-.1-.2Z"></path>
    <path class="st2" d="M69.5,75.4c0,0-.2,0-.2.1v.8c-.1,0,0,.2,0,.2,0,0,0,0,0,0,0,0,.1,0,.2-.1v-.8c.1,0,0-.2,0-.2Z"></path>
    <path class="st2" d="M81.5,70.1l-.6,1c0,0,0,.2,0,.2,0,0,0,0,0,0,0,0,.1,0,.1,0l.6-1c0,0,0-.2,0-.2,0,0-.2,0-.2,0Z"></path>
    <path class="st2" d="M83.7,66.2c0,0-.1.1-.1.2,0,0,.1.1.2.1,2.3-.6,3.9,1.2,4,1.2,0,0,0,0,.1,0s0,0,.1,0c0,0,0-.2,0-.2,0,0-1.8-1.9-4.3-1.3Z"></path>
    <path class="st2" d="M78.9,46.2c.8.3,2,1.2,2,1.2,0,0,0,0,0,0,0,0,0,0,.1,0,0,0,0-.2,0-.2,0,0-1.2-.9-2-1.2,0,0-.2,0-.2,0,0,0,0,.2,0,.2Z"></path>
    <path class="st2" d="M77.9,46.5c.8.2,2.1.9,2.1.9,0,0,0,0,0,0,0,0,.1,0,.1,0,0,0,0-.2,0-.2,0,0-1.3-.7-2.2-.9,0,0-.2,0-.2.1,0,0,0,.2.1.2Z"></path>
    <path class="st2" d="M66.1,51.6s0,0,0,0c0,0,1.8-1.3,2.8-2.3,0,0,0-.2,0-.2,0,0-.2,0-.2,0-1,1-2.8,2.3-2.8,2.3,0,0,0,.2,0,.2,0,0,0,0,.1,0Z"></path>
    <path class="st2" d="M70,49.3c0,0-.2,0-.2,0-.9.8-2.8,1.7-2.8,1.8,0,0-.1.1,0,.2,0,0,0,0,.1,0s0,0,0,0c0,0,1.9-.9,2.9-1.8,0,0,0-.2,0-.2Z"></path>
    <path class="st2" d="M84.4,60s-2.1.9-5,2.6c0,0,0,.1,0,.2,0,0,0,0,.1,0s0,0,0,0c2.9-1.7,4.9-2.6,4.9-2.6,0,0,.1-.1,0-.2,0,0-.1-.1-.2,0Z"></path>
    <path class="st2" d="M82.2,62.3s0,0,.1,0,0,0,.1,0c1.3-1.1,2.3-1.4,2.3-1.4,0,0,.1-.1.1-.2s-.1-.1-.2-.1c0,0-1.1.4-2.4,1.5,0,0,0,.2,0,.2Z"></path>
    <path class="st2" d="M83.6,63.4c0,0-.2,0-.2,0,0,0-.5.8-2,2.2,0,0,0,.2,0,.2,0,0,0,0,.1,0s0,0,.1,0c1.5-1.4,2.1-2.2,2.1-2.2,0,0,0-.2,0-.2Z"></path>
    <path class="st2" d="M83.5,64.7c0,0-.2,0-.2,0,0,0-.4.8-2.1,1.8,0,0-.1.1,0,.2,0,0,0,0,.1,0s0,0,0,0c1.8-1,2.2-1.9,2.3-1.9,0,0,0-.2,0-.2Z"></path>
    <path class="st2" d="M79.6,67.3c.4,0,1-.3,1-.3,0,0,.1-.1.1-.2,0,0-.1-.1-.2-.1,0,0-.6.2-1,.3,0,0-.1.1-.1.2,0,0,0,.1.2.1s0,0,0,0Z"></path>
    <path class="st2" d="M75.2,69.1s0,0,.1,0,0,0,0,0c1.2-.9,3.4-1.6,3.4-1.6,0,0,.1-.1.1-.2,0,0-.1-.1-.2-.1,0,0-2.3.7-3.5,1.7,0,0,0,.2,0,.2Z"></path>
    <path class="st2" d="M81.4,67.3c0,0,0,.2,0,.2,0,0,0,0,.1,0s0,0,0,0c.7-.5,1.6-.8,1.6-.8,0,0,.1-.1.1-.2s-.1-.1-.2-.1c0,0-.9.3-1.7.9Z"></path>
    <path class="st2" d="M79,69.1s0,0,.1,0,0,0,0,0c.9-.6,1.9-1.2,1.9-1.2,0,0,.1-.1,0-.2,0,0-.1-.1-.2,0,0,0-1.1.6-2,1.2,0,0,0,.2,0,.2Z"></path>
    <path class="st2" d="M85.3,66.7c0,0-1.8-.1-3.1.9,0,0,0,.2,0,.2,0,0,0,0,.1,0s0,0,0,0c1.3-1,2.9-.9,2.9-.9,0,0,.2,0,.2-.1,0,0,0-.2-.1-.2Z"></path>
    <path class="st2" d="M81.6,68.2s-1,.8-1.6,1.7h0c-.6.9-1.1,1.6-2,2.2,0,0,0,.1,0,.2,0,0,0,0,.1,0s0,0,0,0c.9-.6,1.5-1.3,2.1-2.2h0c.6-.9,1.6-1.6,1.6-1.7,0,0,0-.2,0-.2,0,0-.2,0-.2,0Z"></path>
    <path class="st2" d="M80.3,71.9s-.5.8-2.1,2c-1.6,1.3-2.2,2.8-2.3,3.5,0,0,0,.2.1.2,0,0,0,0,0,0,0,0,.1,0,.2-.1.2-.6.7-2.1,2.2-3.3,1.6-1.3,2.1-2.1,2.1-2.1,0,0,0-.2,0-.2,0,0-.2,0-.2,0Z"></path>
    <path class="st2" d="M67.8,51.6c-.7.5-1.3,1-1.8,1.4-.2,0-.4,0-.4,0,0,0-.2,0-.2.1s0,.2.1.2c0,0,0,0,0,0-.2.1-.3.2-.3.2,0,0,0,.2,0,.2,0,0,0,0,.1,0s0,0,0,0c0,0,.2-.2.6-.5.2,0,.4,0,.6,0s.2,0,.3,0c0,0,.2,0,.2-.2,0,0,0-.2-.2-.2-.1,0-.3,0-.5,0,.4-.3,1-.7,1.5-1.1,0,0,0-.1,0-.2,0,0-.1,0-.2,0Z"></path>
    <path class="st2" d="M65.7,58.6c0,0-.1-.1-.2,0,0,0-1.2.7-1.8.8,0,0-.1.1-.1.2,0,0,0,.1.2.1s0,0,0,0c.6-.2,1.8-.8,1.9-.9,0,0,.1-.1,0-.2Z"></path>
    <path class="st2" d="M71.4,48.6s0,0,0,0c0,0-.2,0-.2,0-.5.4-2,1.6-2,1.6,0,0,0,.2,0,.2,0,0,0,0,.1,0s0,0,0,0c0,0,.7-.6,1.3-1.1l-.3.3c0,0,0,.2,0,.2,0,0,0,0,.1,0s0,0,.1,0l1.7-1.8c0,0,0-.2,0-.2,0,0-.2,0-.2,0l-.6.7Z"></path>
    <path class="st2" d="M60.1,98.8c-.2,0-1,.1-1,.1,0,0-.2,0-.1.2,0,0,0,.1.2.1s0,0,0,0c0,0,.8,0,1.1-.1,0,0,.1-.1.1-.2,0,0-.1-.1-.2-.1Z"></path>
    <path class="st2" d="M76.6,72.8c0,0-.1,0-.2,0-1.9,1.3-2.3,3-2.3,3,0,0,0,.2.1.2,0,0,0,0,0,0,0,0,.1,0,.2-.1,0,0,.4-1.6,2.2-2.9,0,0,0-.1,0-.2Z"></path>
    <path class="st2" d="M72.7,74.2c-.3.6-.5,1.7-.5,1.8,0,0,0,.2.1.2,0,0,0,0,0,0,0,0,.1,0,.2-.1,0,0,.2-1.2.5-1.7,0,0,0-.2,0-.2s-.2,0-.2,0Z"></path>
    <path class="st2" d="M71.5,73.2c0,0-.2,0-.2.1,0,.4-.3.9-.3.9,0,0,0,.2,0,.2,0,0,0,0,0,0,0,0,.1,0,.1-.1,0,0,.2-.6.3-1,0,0,0-.2-.1-.2Z"></path>
    <path class="st2" d="M86.7,46.8c0,0,0,.2.2.2h0c1.4,0,2.4-.2,2.4-.2,0,0,.1,0,.1-.2,0,0,0-.1-.2-.1,0,0-1.1.2-2.4.2,0,0-.2,0-.2.2Z"></path>
    <path class="st2" d="M87.2,46.1c0,0,0,.1.2.1s0,0,0,0c.8,0,1.2,0,1.2,0,0,0,.2,0,.1-.2,0,0,0-.2-.2-.1,0,0-.4,0-1.2,0,0,0-.2,0-.1.2Z"></path>
    <path class="st2" d="M87,44.4c0,0,0,.1.2.1s0,0,0,0c1.7-.1,2.5-.2,2.5-.2,0,0,.2,0,.1-.2,0,0,0-.2-.2-.1,0,0-.8,0-2.5.2,0,0-.2,0-.1.2Z"></path>
    <path class="st2" d="M84.6,43.8c.3,0,.5,0,.8,0,1.5,0,2.9-.2,2.9-.2,0,0,.1,0,.1-.2,0,0,0-.1-.2-.1,0,0-2,.2-3.7.1,0,0-.2,0-.2.2,0,0,0,.2.2.2Z"></path>
    <path class="st2" d="M87.9,42.6c0,0-.2,0-.2.2s0,.2.2.2c0,0,.2,0,.3,0,.7,0,1.3,0,1.3,0,0,0,.1,0,.1-.2,0,0,0-.1-.2-.1,0,0-.8,0-1.5,0Z"></path>
    <path class="st2" d="M88.4,41.9c0,0,0-.2-.2-.1,0,0-.6,0-1.2,0,0,0-.2,0-.2.2,0,0,0,.2.2.2.1,0,.2,0,.3,0,.4,0,.8,0,.8,0,0,0,.2,0,.1-.2Z"></path>
    <path class="st2" d="M87.3,40.2c0,0,0,.2.2.2.1,0,.2,0,.3,0,.6,0,1.2,0,1.2,0,0,0,.2,0,.1-.2,0,0,0-.2-.2-.1,0,0-.7,0-1.5,0,0,0-.2,0-.2.2Z"></path>
    <path class="st2" d="M85.3,39.6c.8.1,1.5.2,1.8.2s.3,0,.3,0c0,0,.2,0,.1-.2,0,0,0-.2-.2-.1,0,0-.9,0-2.1-.1,0,0-.2,0-.2.1,0,0,0,.2.1.2Z"></path>
    <path class="st2" d="M89.8,57.8c0,0-.1-.1-.2-.1,0,0-.3,0-.7.5,0,0,0,.2,0,.2,0,0,0,0,.1,0s0,0,.1,0c.3-.3.5-.4.5-.4,0,0,.1-.1.1-.2Z"></path>
    <path class="st2" d="M89.4,56.1c0,0-.1-.1-.2-.1,0,0-.4,0-.8.4,0,0,0,.2,0,.2,0,0,0,0,.1,0s0,0,0,0c.3-.2.6-.3.7-.3,0,0,.1-.1.1-.2Z"></path>
    <path class="st2" d="M91.3,64.9c0,0-.1-.1-.2,0-.4.2-.8.4-1,.7,0,0,0,.2,0,.2,0,0,0,0,0,0,0,0,0,0,.1,0,.2-.3.5-.5.9-.6,0,0,.1-.1,0-.2Z"></path>
    <path class="st2" d="M81.5,60.9s0,0,0,0c1.7-.6,2.9-1.6,2.9-1.6,0,0,0-.2,0-.2,0,0-.2,0-.2,0,0,0-1.1,1-2.8,1.6,0,0-.1.1,0,.2,0,0,0,.1.1.1Z"></path>
    <path class="st2" d="M79,61.6s0,0,0,0c1.1-.2,1.8-.5,1.8-.5,0,0,.1-.1,0-.2,0,0-.1-.1-.2,0,0,0-.7.3-1.8.4,0,0-.1,0-.1.2,0,0,0,.1.2.1Z"></path>
    <path class="st2" d="M74.7,61.5c1.3.2,2.4.2,3.1.2s.5,0,.5,0c0,0,.2,0,.2-.2,0,0,0-.2-.2-.2,0,0-1.5,0-3.5-.2,0,0-.2,0-.2.1,0,0,0,.2.1.2Z"></path>
    <path class="st2" d="M73.8,59.8c-3.7-.1-4.3-.8-4.3-.8,0,0-.1,0-.2,0,0,0-.1.1,0,.2,0,0,.5.8,4.6.9,0,0,0,0,0,0,0,0,.2,0,.2-.2,0,0,0-.2-.2-.2Z"></path>
    <path class="st2" d="M46.8,99.3s.5,0,.8.3c0,0,0,0,0,0,0,0,.1,0,.1,0,0,0,0-.2,0-.2-.4-.3-.9-.4-1-.4,0,0-.2,0-.2.1,0,0,0,.2.1.2Z"></path>
    <path class="st2" d="M47.8,98.1s1,0,1.5.1c0,0,0,0,0,0,0,0,.1,0,.1-.1,0,0,0-.2,0-.2-.6-.2-1.6-.1-1.6-.1,0,0-.2,0-.1.2,0,0,0,.2.2.1Z"></path>
    <path class="st2" d="M56.1,105.1s0,0,0,0c0,0,.1,0,.1,0,0,0,0-.2,0-.2-2.5-1.2-4.7-3.1-4.7-3.2,0,0-.2,0-.2,0s0,.2,0,.2c0,0,2.3,2,4.8,3.2Z"></path>
    <path class="st2" d="M62.3,106.8s0,0,0,0c0,0,.1,0,.2-.1,0,0,0-.2-.1-.2,0,0-2.3-.8-3.6-1.5,0,0-.2,0-.2,0,0,0,0,.2,0,.2,1.3.8,3.5,1.5,3.6,1.5Z"></path>
    <path class="st2" d="M59.1,106.4s0,0,0,0c0,0,.1,0,.1,0,0,0,0-.2,0-.2,0,0-1.4-.6-2.1-.9,0,0-.2,0-.2,0,0,0,0,.2,0,.2.7.3,2.1.9,2.1.9Z"></path>
    <path class="st2" d="M70.2,48.8s0,0,.1,0c0,0,.7-.8.9-2.6,0,0,0-.2-.1-.2,0,0-.2,0-.2.1-.2,1.7-.9,2.4-.9,2.4,0,0,0,.2,0,.2,0,0,0,0,.1,0Z"></path>
    <path class="st2" d="M71.2,48.2s0,0,.1,0,0,0,.1,0c0,0,.5-.5.7-1.5,0,0,0-.2-.1-.2,0,0-.2,0-.2.1-.2,1-.6,1.4-.6,1.4,0,0,0,.2,0,.2Z"></path>
    <path class="st2" d="M45.3,103c0,0,.1,0,.1,0,0,0,0-.2,0-.2-.2-.1-1.2-.3-1.3-.3,0,0-.2,0-.2.1,0,0,0,.2.1.2.4,0,1.1.2,1.2.2,0,0,0,0,0,0Z"></path>
    <path class="st2" d="M60.1,107.5s-5-1.4-7.6-3c0,0-.2,0-.2,0,0,0,0,.2,0,.2,1.4.9,3.4,1.7,5.1,2.2-1.9-.2-3.8-.6-3.8-.6,0,0-.2,0-.2.1,0,0,0,.2.1.2,0,0,2.8.6,4.9.7,0,0,0,0,0,0,0,0,0,0,0,0,.9.3,1.4.4,1.5.4,0,0,0,0,0,0,0,0,.1,0,.2-.1,0,0,0-.2-.1-.2Z"></path>
    <path class="st2" d="M48.9,102.1c0,0,0,.2,0,.2,1,.9,2.7,2,2.7,2,0,0,0,0,0,0,0,0,.1,0,.1,0,0,0,0-.2,0-.2,0,0-1.7-1.1-2.7-2,0,0-.2,0-.2,0Z"></path>
    <path class="st2" d="M45.5,101.1c0,0,0,.2.1.2,0,0,1,.3,1.9,1,.2.2.5.5.8.8.6.6,1.4,1.4,2.3,2,0,0,0,0,0,0,0,0,0,0,.1,0,0,0,0-.2,0-.2-.8-.6-1.6-1.3-2.2-1.9-.3-.3-.6-.6-.8-.8-.9-.8-1.9-1.1-2-1.1,0,0-.2,0-.2.1Z"></path>
    <path class="st2" d="M53,106.1c-.9-.3-1.7-.8-1.7-.8,0,0-.2,0-.2,0s0,.2,0,.2c0,0,.8.5,1.8.9,0,0,0,0,0,0,0,0,.1,0,.1-.1,0,0,0-.2,0-.2Z"></path>
    <path class="st2" d="M38.9,105.1s0,0,0,0c0,0,.1,0,.2-.1,0,0,0-.2-.1-.2-.2,0-.9-.4-1.1-.5,0,0-.2,0-.2,0s0,.2,0,.2c0,0,.9.5,1.2.6Z"></path>
    <path class="st2" d="M37.6,105.3s0,0,0,0c0,0,.1,0,.2-.1,0,0,0-.2-.1-.2-.2,0-.9-.4-1.1-.5,0,0-.2,0-.2,0s0,.2,0,.2c0,0,.9.5,1.2.6Z"></path>
    <path class="st2" d="M39.5,106.6c-2.1-.6-3.8-1.5-3.8-1.5,0,0-.2,0-.2,0,0,0,0,.2,0,.2,0,0,1.8.9,3.9,1.5,0,0,0,0,0,0,0,0,.1,0,.2-.1,0,0,0-.2-.1-.2Z"></path>
    <path class="st2" d="M33.6,105.7s1.1.5,2.7,1.1c0,0,0,0,0,0,0,0,.1,0,.1,0,0,0,0-.2,0-.2-1.6-.7-2.7-1.1-2.7-1.1,0,0-.2,0-.2,0,0,0,0,.2,0,.2Z"></path>
    <path class="st2" d="M37.7,107.7c-2.5-.7-5.5-1.8-5.5-1.8,0,0-.2,0-.2,0,0,0,0,.2,0,.2,0,0,3,1.2,5.5,1.8,0,0,0,0,0,0,0,0,.1,0,.2-.1,0,0,0-.2-.1-.2Z"></path>
  </g>
  <g>
    <g>
      <path class="st2" d="M283.6,43.9h-41.7v13.1h38.3v10.5h-38.3v15h42.6v11.3h-60v-61.3h59.1v11.3Z"></path>
      <path class="st2" d="M313.2,70.9c0,4.5,1.3,7.8,3.9,9.9,2.6,2.1,6.7,3.1,12.3,3.1s10.3-1,12.7-3.1c2.4-2.1,3.7-5.4,3.7-9.9v-38.4h17.4v38.4c0,7.7-2.8,13.6-8.5,17.9s-14.1,6.4-25.3,6.4-19.9-2.1-25.4-6.4-8.2-10.3-8.2-17.9v-38.4h17.4v38.4Z"></path>
      <path class="st2" d="M428.4,36.2c5.7,3.4,8.6,8.3,8.6,14.6h-16.8c-.2-3.1-1.6-5.4-4-7s-6.3-2.3-11.4-2.3-6.5.6-8.7,1.8c-2.2,1.2-3.3,2.9-3.3,5.1s.7,3.1,2,3.9c1.4.8,3.3,1.5,5.8,2.1,2.5.6,6.9,1.5,13.2,2.7,6.6,1.3,11.6,2.6,15.2,4.1,3.5,1.5,6.2,3.4,8.1,5.7,1.8,2.3,2.8,5.2,2.8,8.5s-1.3,7.4-4,10.4c-2.7,3-6.5,5.3-11.6,6.9-5.1,1.6-10.8,2.4-17.3,2.4-9.8,0-17.9-1.9-24.2-5.7-6.3-3.8-9.5-9-9.5-15.7v-.4h16.8c0,3.6,1.6,6.4,4.8,8.4,3.2,2,7.4,3,12.6,3s8.4-.6,11.2-1.9c2.8-1.3,4.3-3.2,4.3-5.7s-.8-3.1-2.3-4.2c-1.5-1.1-3.6-2.1-6.2-2.8-2.6-.7-6.9-1.6-13.1-2.7-7.1-1.4-12.2-2.8-15.5-4.4-3.2-1.5-5.7-3.4-7.4-5.6-1.7-2.2-2.5-4.8-2.5-7.9s1.4-7.2,4.3-10c2.8-2.9,6.5-5,11.1-6.4,4.6-1.4,9.3-2.1,14.2-2.1,9.7,0,17.3,1.7,23.1,5.1Z"></path>
      <path class="st2" d="M213.2,43.2l-42.4,39.3h43.5v11.3h-66.6v-10.6l42.4-39.3h-39v-11.3h62.2v10.6Z"></path>
    </g>
    <rect class="st0" x="449.3" y="54.9" width="39.5" height="39.5" rx="14.1" ry="14.1"></rect>
    <g>
      <path class="st1" d="M462.7,73.9c-.3.6-.8,1.1-1.6,1.4-.7.4-1.6.6-2.8.6h-2.5v5.3h-2.2v-13.1h4.7c1,0,1.9.2,2.6.5.7.3,1.3.8,1.6,1.4.4.6.5,1.3.5,2s-.2,1.3-.5,1.9ZM460.3,73.5c.4-.4.6-.9.6-1.6,0-1.4-.8-2.2-2.5-2.2h-2.5v4.3h2.5c.8,0,1.5-.2,1.9-.6Z"></path>
      <path class="st1" d="M471.6,78.5h-5.7l-1,2.7h-2.3l4.9-13.1h2.6l4.9,13.1h-2.3l-1-2.7ZM471,76.7l-2.2-6.1-2.2,6.1h4.4Z"></path>
      <path class="st1" d="M485.1,68.1l-4.5,8.4v4.8h-2.2v-4.8l-4.5-8.4h2.5l3.1,6.4,3.1-6.4h2.5Z"></path>
    </g>
  </g>
</svg>